# This file uses centimeters as units for non-parametric coordinates.

mtllib board.mtl
g default
v -613.462891 -13.045284 405.634766
v 613.463013 -13.045284 405.634766
v -613.462891 13.045288 405.634766
v 613.463013 13.045288 405.634766
v -613.462891 13.045288 -405.634766
v 613.463013 13.045288 -405.634766
v -613.462891 -13.045284 -405.634766
v 613.463013 -13.045284 -405.634766
v -613.462891 -13.045284 426.958649
v 613.463013 -13.045284 426.958649
v 613.463013 13.045288 426.958649
v -613.462891 13.045288 426.958649
v -613.462891 13.045288 -426.958649
v 613.463013 13.045288 -426.958649
v 613.463013 -13.045284 -426.958649
v -613.462891 -13.045284 -426.958649
v 636.742065 -13.045284 -405.634766
v 636.742065 -13.045284 405.634766
v 636.742065 13.045288 -405.634766
v 636.742065 13.045288 405.634766
v 636.742065 13.045288 426.958649
v 636.742065 -13.045284 426.958649
v 636.742065 -13.045284 -426.958649
v 636.742065 13.045288 -426.958649
v -636.741882 -13.045284 -405.634766
v -636.741882 -13.045284 405.634766
v -636.741882 13.045288 405.634766
v -636.741882 13.045288 -405.634766
v -636.741882 -13.045284 426.958649
v -636.741882 13.045288 426.958649
v -636.741882 13.045288 -426.958649
v -636.741882 -13.045284 -426.958649
v 619.257446 7.894943 -430.991425
v 642.756226 7.894943 -430.991425
v 642.756226 7.894943 -409.466156
v 642.756226 7.894943 409.466156
v 642.756226 7.894943 430.991425
v 619.257324 7.894943 430.991425
v -619.257324 7.894943 430.991425
v -642.756104 7.894943 430.991425
v -642.756104 7.894943 409.466156
v -642.756226 7.894943 -409.466156
v -642.756226 7.894943 -430.991425
v -619.257324 7.894943 -430.991425
v 619.257324 -6.590412 430.991425
v 642.756226 -6.590412 430.991425
v 642.756226 -6.590412 409.466156
v 642.756226 -6.590412 -409.466156
v 642.756226 -6.590412 -430.991425
v 619.257324 -6.590412 -430.991425
v -619.257324 -6.590412 -430.991425
v -642.756104 -6.590412 -430.991425
v -642.756104 -6.590412 -409.466156
v -642.756104 -6.590412 409.466156
v -642.756104 -6.590412 430.991425
v -619.257324 -6.590412 430.991425
v -613.462891 0.684834 405.634766
v 613.463013 0.684834 405.634766
v 613.463013 0.684834 -405.634766
v -613.462891 0.684834 -405.634766
vt 0.971101 0.481634
vt 0.971001 0.486984
vt 0.667876 0.487570
vt 0.667777 0.482186
vt 0.979173 0.481946
vt 0.979067 0.487349
vt 0.969548 0.489914
vt 0.669331 0.490511
vt 0.659769 0.487914
vt 0.659691 0.482493
vt 0.669172 0.478904
vt 0.969710 0.478375
vt 0.977113 0.490025
vt 0.977750 0.478604
vt 0.661720 0.490601
vt 0.661128 0.479150
vt 0.668150 0.964994
vt 0.972219 0.965281
vt 0.972230 0.970649
vt 0.668154 0.970364
vt 0.669568 0.962061
vt 0.970793 0.962346
vt 0.980207 0.965242
vt 0.980219 0.970617
vt 0.970813 0.973918
vt 0.669578 0.973635
vt 0.660164 0.964986
vt 0.660167 0.970358
vt 0.661656 0.962051
vt 0.978708 0.962308
vt 0.978731 0.973894
vt 0.661663 0.973630
vt 0.047683 0.055804
vt 0.626328 0.055792
vt 0.626329 0.064608
vt 0.047683 0.064620
vt 0.626347 0.948541
vt 0.047701 0.948552
vt 0.047701 0.939736
vt 0.626346 0.939725
vt 0.969745 0.015222
vt 0.969716 0.469770
vt 0.669165 0.470253
vt 0.669087 0.015326
vt 0.977648 0.015221
vt 0.977619 0.469770
vt 0.661262 0.470253
vt 0.661184 0.015327
vt 0.669087 0.006698
vt 0.969744 0.006594
vt 0.977648 0.006594
vt 0.980469 0.013075
vt 0.980440 0.471916
vt 0.977618 0.478391
vt 0.661264 0.478888
vt 0.658441 0.472402
vt 0.658363 0.013179
vt 0.661184 0.006699
vt 0.980468 0.004365
vt 0.980439 0.480621
vt 0.658443 0.481116
vt 0.658363 0.004470
vt 0.669297 0.499167
vt 0.669556 0.953431
vt 0.661652 0.953409
vt 0.661393 0.499110
vt 0.659229 0.955550
vt 0.658968 0.496905
vt 0.970781 0.953720
vt 0.659228 0.964273
vt 0.969577 0.498522
vt 0.978686 0.953665
vt 0.977481 0.498412
vt 0.981116 0.955800
vt 0.981143 0.964521
vt 0.979899 0.496196
vt 0.653073 0.472402
vt 0.652994 0.013179
vt 0.652994 0.004470
vt 0.653074 0.481115
vt 0.985838 0.013074
vt 0.985809 0.471916
vt 0.985837 0.004365
vt 0.985808 0.480622
vt 0.038885 0.939736
vt 0.038867 0.064620
vt 0.635145 0.064608
vt 0.635163 0.939724
vn 0.000000 0.124362 0.992237
vn 0.000000 0.124361 0.992237
vn 0.000000 -0.127783 0.991802
vn 0.000000 -0.127785 0.991802
vn 0.000000 1.000000 0.000000
vn 0.000000 1.000000 0.000000
vn 0.000000 1.000000 0.000000
vn 0.000000 1.000000 0.000000
vn 0.000000 -0.127783 -0.991802
vn 0.000000 0.124361 -0.992237
vn 0.000000 0.124362 -0.992237
vn 0.000000 -0.127784 -0.991802
vn 0.000000 -1.000000 0.000000
vn 0.000000 -1.000000 0.000000
vn 0.000000 -1.000000 0.000000
vn 0.000000 -1.000000 0.000000
vn 0.974546 -0.224186 0.000000
vn 0.973415 0.229047 0.000000
vn 0.973415 0.229047 0.000000
vn 0.974546 -0.224186 0.000000
vn -0.973415 0.229050 0.000000
vn -0.973414 0.229051 0.000000
vn -0.974544 -0.224194 0.000000
vn -0.974544 -0.224194 0.000000
vn 0.000000 -1.000000 0.000000
vn 0.000000 -1.000000 0.000000
vn 0.000000 -1.000000 0.000000
vn 0.000000 -1.000000 0.000000
vn 0.939261 0.343203 0.000000
vn 0.974156 0.225876 0.000000
vn 0.975150 -0.221544 0.000000
vn 0.948447 -0.316936 0.000000
vn 0.000000 1.000000 0.000000
vn 0.000000 1.000000 0.000000
vn 0.000000 1.000000 0.000000
vn 0.000000 1.000000 0.000000
vn -0.974155 0.225879 0.000000
vn -0.939260 0.343207 0.000000
vn -0.948446 -0.316939 0.000000
vn -0.975150 -0.221546 0.000000
vn 0.000000 1.000000 0.000000
vn 0.000000 1.000000 0.000000
vn 0.000000 1.000000 0.000000
vn 0.000000 1.000000 0.000000
vn 0.975150 -0.221544 0.000000
vn 0.974156 0.225876 0.000000
vn 0.939261 0.343203 0.000000
vn 0.948447 -0.316936 0.000000
vn 0.000000 -1.000000 0.000000
vn 0.000000 -1.000000 0.000000
vn 0.000000 -1.000000 0.000000
vn 0.000000 -1.000000 0.000000
vn -0.948445 -0.316943 0.000000
vn -0.939260 0.343206 0.000000
vn -0.974156 0.225878 0.000000
vn -0.975149 -0.221552 0.000000
vn 0.000000 -1.000000 0.000000
vn 0.000000 -1.000000 0.000000
vn 0.000000 -1.000000 0.000000
vn 0.000000 -1.000000 0.000000
vn 0.000000 1.000000 0.000000
vn 0.000000 1.000000 0.000000
vn 0.000000 1.000000 0.000000
vn 0.000000 1.000000 0.000000
vn 0.000000 1.000000 0.000000
vn 0.000000 1.000000 0.000000
vn 0.000000 1.000000 0.000000
vn 0.000000 1.000000 0.000000
vn 0.000000 0.122102 0.992518
vn 0.000000 0.257896 0.966173
vn 0.000000 -0.234134 0.972204
vn 0.000000 -0.125820 0.992053
vn 0.000000 -1.000000 0.000000
vn 0.000000 -1.000000 0.000000
vn 0.000000 -1.000000 0.000000
vn 0.000000 -1.000000 0.000000
vn 0.000000 -1.000000 0.000000
vn 0.000000 -1.000000 0.000000
vn 0.000000 -1.000000 0.000000
vn 0.000000 -1.000000 0.000000
vn 0.000000 -0.234135 -0.972204
vn 0.000000 0.257896 -0.966173
vn 0.000000 0.122102 -0.992518
vn 0.000000 -0.125821 -0.992053
vn 0.000000 1.000000 0.000000
vn 0.000000 1.000000 0.000000
vn 0.000000 1.000000 0.000000
vn 0.000000 1.000000 0.000000
vn 0.000000 -1.000000 0.000000
vn 0.000000 -1.000000 0.000000
vn 0.000000 -1.000000 0.000000
vn 0.000000 -1.000000 0.000000
vn 0.000000 1.000000 0.000000
vn 0.000000 1.000000 0.000000
vn 0.000000 1.000000 0.000000
vn 0.000000 1.000000 0.000000
vn 0.000000 -1.000000 0.000000
vn 0.000000 -1.000000 0.000000
vn 0.000000 -1.000000 0.000000
vn 0.000000 -1.000000 0.000000
vn 0.000000 0.257897 0.966172
vn 0.000000 0.122101 0.992518
vn 0.000000 -0.125820 0.992053
vn 0.000000 -0.234135 0.972204
vn 0.000000 1.000000 0.000000
vn 0.000000 1.000000 0.000000
vn 0.000000 1.000000 0.000000
vn 0.000000 1.000000 0.000000
vn 0.000000 1.000000 0.000000
vn 0.000000 1.000000 0.000000
vn 0.000000 1.000000 0.000000
vn 0.000000 1.000000 0.000000
vn 0.000000 -0.125819 -0.992053
vn 0.000000 0.122100 -0.992518
vn 0.000000 0.257896 -0.966173
vn 0.000000 -0.234135 -0.972204
vn 0.000000 -1.000000 0.000000
vn 0.000000 -1.000000 0.000000
vn 0.000000 -1.000000 0.000000
vn 0.000000 -1.000000 0.000000
vn 0.000000 0.616505 -0.787351
vn 0.000000 0.616505 -0.787351
vn 0.650454 0.759546 0.000000
vn 0.650454 0.759546 0.000000
vn 0.650455 0.759545 0.000000
vn 0.650455 0.759545 0.000000
vn 0.650454 0.759546 0.000000
vn 0.650454 0.759546 0.000000
vn 0.000000 0.616505 0.787351
vn 0.000000 0.616505 0.787351
vn 0.000000 0.616505 0.787351
vn 0.000000 0.616505 0.787351
vn 0.000000 0.616505 0.787351
vn 0.000000 0.616505 0.787351
vn -0.650448 0.759551 0.000000
vn -0.650448 0.759551 0.000000
vn -0.650443 0.759555 0.000000
vn -0.650443 0.759555 0.000000
vn -0.650444 0.759555 0.000000
vn -0.650444 0.759555 0.000000
vn 0.000000 0.616504 -0.787352
vn 0.000000 0.616504 -0.787352
vn 0.000000 0.616505 -0.787351
vn 0.000000 0.616505 -0.787351
vn 0.000000 -0.529855 0.848088
vn 0.000000 -0.529855 0.848088
vn 0.731643 -0.681689 0.000000
vn 0.731643 -0.681689 0.000000
vn 0.731644 -0.681687 0.000000
vn 0.731644 -0.681687 0.000000
vn 0.731643 -0.681689 0.000000
vn 0.731643 -0.681689 0.000000
vn 0.000000 -0.529855 -0.848088
vn 0.000000 -0.529855 -0.848088
vn 0.000000 -0.529855 -0.848088
vn 0.000000 -0.529855 -0.848088
vn 0.000000 -0.529856 -0.848088
vn 0.000000 -0.529856 -0.848088
vn -0.731637 -0.681694 0.000000
vn -0.731637 -0.681694 0.000000
vn -0.731638 -0.681694 0.000000
vn -0.731638 -0.681694 0.000000
vn -0.731639 -0.681693 0.000000
vn -0.731639 -0.681693 0.000000
vn 0.000000 -0.529856 0.848088
vn 0.000000 -0.529856 0.848088
vn 0.000000 -0.529855 0.848088
vn 0.000000 -0.529855 0.848088
vn 0.000000 0.000000 -1.000000
vn 0.000000 0.000000 -1.000000
vn 0.000000 0.000000 -1.000000
vn 0.000000 0.000000 -1.000000
vn -1.000000 0.000000 0.000000
vn -1.000000 0.000000 0.000000
vn -1.000000 0.000000 0.000000
vn -1.000000 0.000000 0.000000
vn 0.000000 0.000000 1.000000
vn 0.000000 0.000000 1.000000
vn 0.000000 0.000000 1.000000
vn 0.000000 0.000000 1.000000
vn 1.000000 0.000000 0.000000
vn 1.000000 0.000000 0.000000
vn 1.000000 0.000000 0.000000
vn 1.000000 0.000000 0.000000
s 1
g board
usemtl initialShadingGroup
f 38/77/1 39/78/2 56/57/3 45/56/4
s off
f 57/39/5 58/36/6 59/35/7 60/40/8
s 2
f 51/52/9 44/81/10 33/82/11 50/53/12
s off
f 7/41/13 8/42/14 2/43/15 1/44/16
s 3
f 48/1/17 35/2/18 36/3/19 47/4/20
s 4
f 41/17/21 42/18/22 53/19/23 54/20/24
s off
f 1/44/25 2/43/26 10/47/27 9/48/28
s 5
f 36/3/29 37/9/30 46/10/31 47/4/32
s off
f 4/63/33 3/64/34 12/65/35 11/66/36
s 6
f 40/27/37 41/17/38 54/20/39 55/28/40
s off
f 5/69/41 6/71/42 14/73/43 13/72/44
s 7
f 49/5/45 34/6/46 35/2/47 48/1/48
s off
f 8/42/49 7/41/50 16/45/51 15/46/52
s 8
f 53/19/53 42/18/54 43/23/55 52/24/56
s off
f 2/43/57 8/42/58 17/12/59 18/11/60
f 6/71/61 4/63/62 20/8/63 19/7/64
f 4/63/65 11/66/66 21/15/67 20/8/68
s 9
f 37/80/69 38/77/70 45/56/71 46/61/72
s off
f 10/47/73 2/43/74 18/11/75 22/55/76
f 8/42/77 15/46/78 23/54/79 17/12/80
s 10
f 50/53/81 33/82/82 34/84/83 49/60/84
s off
f 14/73/85 6/71/86 19/7/87 24/13/88
f 7/41/89 1/44/90 26/49/91 25/50/92
f 3/64/93 5/69/94 28/22/95 27/21/96
f 1/44/97 9/48/98 29/58/99 26/49/100
s 11
f 39/78/101 40/79/102 55/62/103 56/57/104
s off
f 12/65/105 3/64/106 27/21/107 30/29/108
f 5/69/109 13/72/110 31/30/111 28/22/112
s 12
f 52/59/113 43/83/114 44/81/115 51/52/116
s off
f 16/45/117 7/41/118 25/50/119 32/51/120
s 10
f 34/6/83 33/76/82 14/73/121 24/13/122
s 7
f 19/7/123 35/2/47 34/6/46 24/13/124
s 3
f 36/3/19 35/2/18 19/7/125 20/8/126
s 5
f 37/9/30 36/3/29 20/8/127 21/15/128
s 9
f 11/66/129 38/68/70 37/9/69 21/15/130
s 1
f 39/67/2 38/68/1 11/66/131 12/65/132
s 11
f 40/70/102 39/67/101 12/65/133 30/29/134
s 6
f 27/21/135 41/17/38 40/27/37 30/29/136
s 4
f 42/18/22 41/17/21 27/21/137 28/22/138
s 8
f 43/23/55 42/18/54 28/22/139 31/30/140
s 12
f 13/72/141 44/74/115 43/75/114 31/30/142
s 2
f 13/72/143 14/73/144 33/76/11 44/74/10
s 9
f 46/61/72 45/56/71 10/47/145 22/55/146
s 5
f 18/11/147 47/4/32 46/10/31 22/16/148
s 3
f 18/11/149 17/12/150 48/1/17 47/4/20
s 7
f 49/5/45 48/1/48 17/12/151 23/14/152
s 10
f 15/46/153 50/53/81 49/60/84 23/54/154
s 2
f 51/52/9 50/53/12 15/46/155 16/45/156
s 12
f 52/59/113 51/52/116 16/45/157 32/51/158
s 8
f 25/25/159 53/19/53 52/24/56 32/31/160
s 4
f 25/25/161 26/26/162 54/20/24 53/19/23
s 6
f 55/28/40 54/20/39 26/26/163 29/32/164
s 11
f 9/48/165 56/57/104 55/62/103 29/58/166
s 1
f 9/48/167 10/47/168 45/56/4 56/57/3
s off
f 3/85/169 4/86/170 58/36/171 57/39/172
f 4/33/173 6/34/174 59/35/175 58/36/176
f 6/87/177 5/88/178 60/40/179 59/35/180
f 5/37/181 3/38/182 57/39/183 60/40/184
