# This file uses centimeters as units for non-parametric coordinates.

mtllib staffli.mtl
g default
v -738.163208 6.431885 19.757395
v -694.015259 5.545776 19.757395
v -124.393066 2468.832520 19.757395
v -81.314209 2459.134766 19.757395
v -124.393066 2468.832520 -19.757395
v -81.314209 2459.134766 -19.757395
v -738.163208 6.431885 -19.757395
v -694.015259 5.545776 -19.757395
v 262.365570 0.808711 481.813934
v 301.879425 0.570856 481.674591
v -135.964859 2444.894043 67.444275
v -96.955826 2451.106445 66.385223
v -135.964859 2438.253418 28.491470
v -96.955826 2444.465820 27.432419
v 262.221039 -0.053048 442.308777
v 301.734894 -0.290906 442.169464
v 262.321228 -2.243558 -383.375793
v 301.835968 -2.224042 -383.432648
v -135.964859 2445.283691 -27.952850
v -96.955826 2451.519531 -27.043091
v -135.964859 2450.988281 -67.053711
v -96.955826 2457.224121 -66.143951
v 262.264496 -2.595799 -422.888947
v 301.779236 -2.576288 -422.945801
v 112.679710 1164.808960 410.769928
v 167.481796 1170.781372 410.769928
v 106.707336 1203.357910 410.769928
v 164.493347 1209.330444 410.769928
v 106.707336 1203.357910 -410.769928
v 164.493347 1209.330444 -410.769928
v 112.679710 1164.808960 -410.769928
v 167.481796 1170.781372 -410.769928
v 143.518967 1169.586914 410.769928
v 143.518967 1169.586914 -410.769928
v 156.153931 1208.135986 -410.769928
v 156.153931 1208.135986 410.769928
v 153.996613 1222.060669 -410.769928
v 153.996613 1222.060669 410.769928
v 162.336029 1223.255127 410.769928
v 162.336029 1223.255127 -410.769928
v -100.809792 2432.920410 -78.786331
v -108.821152 2438.740967 -78.786331
v -118.723740 2438.740967 -78.786331
v -126.735107 2432.920410 -78.786331
v -129.795166 2423.502441 -78.786331
v -126.735100 2414.084473 -78.786331
v -118.723740 2408.263916 -78.786331
v -108.821152 2408.263916 -78.786331
v -100.809792 2414.084473 -78.786331
v -97.749725 2423.502441 -78.786331
v -100.809792 2432.920410 78.786331
v -108.821152 2438.740967 78.786331
v -118.723740 2438.740967 78.786331
v -126.735107 2432.920410 78.786331
v -129.795166 2423.502441 78.786331
v -126.735100 2414.084473 78.786331
v -118.723740 2408.263916 78.786331
v -108.821152 2408.263916 78.786331
v -100.809792 2414.084473 78.786331
v -97.749725 2423.502441 78.786331
v -113.772446 2423.502441 -78.786331
v -113.772446 2423.502441 78.786331
vt 0.052385 0.020095
vt 0.360843 0.965988
vt 0.052238 0.958186
vt 0.360993 0.008660
vt 0.037632 0.958183
vt 0.346035 0.008658
vt 0.345882 0.982701
vt 0.345885 0.965986
vt 0.159408 0.979635
vt 0.337527 0.976527
vt 0.335757 0.023616
vt 0.335715 0.008658
vt 0.320799 0.023659
vt 0.174709 0.012453
vt 0.322721 0.974396
vt 0.320590 0.989202
vt 0.116041 0.024600
vt 0.308187 0.974331
vt 0.310221 0.023658
vt 0.310262 0.008699
vt 0.295263 0.023616
vt 0.101560 0.950624
vt 0.293394 0.976549
vt 0.295612 0.991342
vt 0.539967 0.016031
vt 0.497734 0.036898
vt 0.495163 0.009157
vt 0.230137 0.011047
vt 0.221487 0.327521
vt 0.556328 0.016220
vt 0.224709 0.011047
vt 0.563135 0.006437
vt 0.621729 0.036901
vt 0.216059 0.327522
vt 0.579497 0.006249
vt 0.245054 0.327519
vt 0.266318 0.327518
vt 0.266295 0.011044
vt 0.196899 0.011049
vt 0.576850 0.073657
vt 0.637958 0.009800
vt 0.631197 0.019101
vt 0.689474 0.043460
vt 0.700411 0.039909
vt 0.631195 0.030600
vt 0.678538 0.039906
vt 0.637952 0.039905
vt 0.671781 0.030602
vt 0.648887 0.043461
vt 0.671782 0.019103
vt 0.659824 0.039909
vt 0.678543 0.009801
vt 0.666585 0.030608
vt 0.689479 0.006249
vt 0.666587 0.019109
vt 0.700415 0.009804
vt 0.659830 0.009804
vt 0.707173 0.019107
vt 0.648895 0.006249
vt 0.707171 0.030607
vt 0.648891 0.024855
vt 0.689477 0.024855
vt 0.486108 0.006269
vt 0.371117 0.006249
vt 0.371084 0.189225
vt 0.486075 0.189245
vt 0.428580 0.189235
vt 0.440079 0.189237
vt 0.417080 0.189233
vt 0.405581 0.189231
vt 0.394083 0.189229
vt 0.382583 0.189227
vt 0.474576 0.189243
vt 0.463077 0.189241
vt 0.451578 0.189239
vt 0.428612 0.006259
vt 0.440111 0.006261
vt 0.417113 0.006257
vt 0.405614 0.006255
vt 0.394115 0.006253
vt 0.382616 0.006251
vt 0.474608 0.006267
vt 0.463109 0.006265
vt 0.451610 0.006263
vt 0.563135 0.016219
vt 0.224732 0.327521
vt 0.230160 0.327521
vt 0.221464 0.011047
vt 0.556329 0.006437
vt 0.539967 0.006249
vt 0.216036 0.011048
vt 0.579497 0.016032
vt 0.254297 0.327519
vt 0.624300 0.009159
vt 0.254274 0.011045
vt 0.245031 0.011046
vt 0.196922 0.327523
vt 0.281346 0.327517
vt 0.622145 0.073137
vt 0.542611 0.073656
vt 0.281323 0.011043
vt 0.497316 0.073135
vt 0.101600 0.022406
vt 0.310405 0.989124
vt 0.174470 0.977439
vt 0.335396 0.991333
vt 0.087177 0.020093
vt 0.130462 0.022280
vt 0.189485 0.979942
vt 0.144391 0.982129
vt 0.037778 0.020093
vt 0.360840 0.982704
vt 0.021863 0.023720
vt 0.068298 0.023727
vt 0.116167 0.950612
vt 0.295304 0.008658
vt 0.086953 0.950636
vt 0.130774 0.950617
vt 0.159487 0.012438
vt 0.320757 0.008700
vt 0.189931 0.012448
vt 0.144265 0.012423
vt 0.021313 0.958554
vt 0.068557 0.958561
vt 0.052236 0.974509
vt 0.037629 0.974506
vn 0.000000 0.000000 1.000000
vn 0.000000 0.000000 1.000000
vn 0.000000 0.000000 1.000000
vn 0.000000 0.000000 1.000000
vn 0.219620 0.975585 0.000000
vn 0.219620 0.975585 0.000000
vn 0.219620 0.975585 0.000000
vn 0.219620 0.975585 0.000000
vn 0.000000 0.000000 -1.000000
vn 0.000000 0.000000 -1.000000
vn 0.000000 0.000000 -1.000000
vn 0.000000 0.000000 -1.000000
vn -0.020067 -0.999799 0.000000
vn -0.020067 -0.999799 0.000000
vn -0.020067 -0.999799 0.000000
vn -0.020067 -0.999799 0.000000
vn 0.970207 -0.242277 0.000000
vn 0.970207 -0.242277 0.000000
vn 0.970207 -0.242277 0.000000
vn 0.970207 -0.242277 0.000000
vn -0.970312 0.241857 0.000000
vn -0.970312 0.241857 0.000000
vn -0.970312 0.241857 0.000000
vn -0.970312 0.241857 0.000000
vn 0.002302 0.167484 0.985872
vn 0.002302 0.167484 0.985872
vn 0.002302 0.167484 0.985872
vn 0.002302 0.167484 0.985872
vn -0.159485 0.973160 -0.165905
vn -0.159485 0.973160 -0.165905
vn -0.159485 0.973160 -0.165905
vn -0.159485 0.973160 -0.165905
vn -0.002289 -0.167651 -0.985844
vn -0.002289 -0.167651 -0.985844
vn -0.002289 -0.167651 -0.985844
vn -0.002289 -0.167651 -0.985844
vn -0.005941 -0.999744 0.021830
vn -0.005941 -0.999744 0.021830
vn -0.005941 -0.999744 0.021830
vn -0.005941 -0.999744 0.021830
vn 0.987298 0.157978 -0.016925
vn 0.987298 0.157978 -0.016925
vn 0.987298 0.157978 -0.016925
vn 0.987298 0.157978 -0.016925
vn -0.987264 -0.158188 0.016945
vn -0.987264 -0.158188 0.016945
vn -0.987264 -0.158188 0.016945
vn -0.987264 -0.158188 0.016945
vn 0.000691 -0.143612 0.989634
vn 0.000691 -0.143612 0.989634
vn 0.000691 -0.143612 0.989634
vn 0.000691 -0.143612 0.989634
vn -0.159481 0.976860 0.142519
vn -0.159481 0.976859 0.142519
vn -0.159481 0.976860 0.142519
vn -0.159481 0.976859 0.142519
vn -0.000676 0.143431 -0.989660
vn -0.000676 0.143431 -0.989660
vn -0.000676 0.143431 -0.989660
vn -0.000676 0.143431 -0.989660
vn 0.000507 -0.999960 0.008914
vn 0.000507 -0.999960 0.008914
vn 0.000507 -0.999960 0.008914
vn 0.000507 -0.999960 0.008914
vn 0.987263 0.158779 0.010098
vn 0.987263 0.158779 0.010098
vn 0.987263 0.158779 0.010098
vn 0.987263 0.158779 0.010098
vn -0.987231 -0.158975 -0.010112
vn -0.987231 -0.158975 -0.010112
vn -0.987231 -0.158975 -0.010112
vn -0.987231 -0.158975 -0.010112
vn -0.000000 0.000000 1.000000
vn -0.000000 0.000000 1.000000
vn -0.000000 0.000000 1.000000
vn -0.000000 0.000000 1.000000
vn -0.141783 0.989898 0.000000
vn -0.141783 0.989898 0.000000
vn -0.141783 0.989898 0.000000
vn -0.141783 0.989898 0.000000
vn 0.000000 0.000000 -1.000000
vn 0.000000 0.000000 -1.000000
vn 0.000000 0.000000 -1.000000
vn 0.000000 0.000000 -1.000000
vn 0.108340 -0.994114 0.000000
vn 0.108340 -0.994114 0.000000
vn 0.049784 -0.998760 0.000000
vn 0.049784 -0.998760 0.000000
vn 0.997009 0.077291 0.000000
vn 0.997009 0.077291 0.000000
vn 0.995226 0.097596 0.000000
vn 0.995226 0.097596 0.000000
vn -0.988210 -0.153103 0.000000
vn -0.988210 -0.153103 0.000000
vn -0.988210 -0.153103 0.000000
vn -0.988210 -0.153103 0.000000
vn 0.153104 -0.988210 0.000000
vn 0.153104 -0.988210 0.000000
vn 0.000000 0.000000 -1.000000
vn 0.000000 0.000000 -1.000000
vn -0.096183 0.995364 0.000000
vn -0.096183 0.995364 0.000000
vn -0.096183 0.995364 0.000000
vn -0.096183 0.995364 0.000000
vn 0.000000 0.000000 1.000000
vn 0.000000 0.000000 1.000000
vn -0.988210 -0.153102 0.000000
vn -0.988210 -0.153102 0.000000
vn -0.988210 -0.153102 0.000000
vn -0.988210 -0.153102 0.000000
vn 0.000000 0.000000 1.000000
vn 0.000000 0.000000 1.000000
vn 0.988210 0.153102 0.000000
vn 0.988210 0.153102 0.000000
vn 0.000000 0.000000 -1.000000
vn 0.000000 0.000000 -1.000000
vn 0.808349 0.587299 -0.040640
vn 0.308760 0.950271 -0.040641
vn 0.308760 0.950271 0.040641
vn 0.808349 0.587299 0.040640
vn -0.308760 0.950271 -0.040640
vn -0.308760 0.950271 0.040640
vn -0.808349 0.587299 -0.040640
vn -0.808349 0.587299 0.040640
vn -0.999174 -0.000001 -0.040641
vn -0.999174 -0.000001 0.040641
vn -0.808349 -0.587299 -0.040641
vn -0.808349 -0.587299 0.040640
vn -0.308760 -0.950271 -0.040640
vn -0.308760 -0.950271 0.040640
vn 0.308760 -0.950271 -0.040640
vn 0.308760 -0.950271 0.040640
vn 0.808349 -0.587299 -0.040640
vn 0.808349 -0.587299 0.040641
vn 0.999174 0.000000 -0.040640
vn 0.999174 0.000000 0.040641
vn 0.000000 0.000000 -1.000000
vn 0.000000 0.000000 1.000000
s off
g staffli
usemtl initialShadingGroup
f 1/1/1 2/114/2 4/124/3 3/3/4
f 3/3/5 4/125/6 6/126/7 5/5/8
f 5/5/9 6/123/10 8/113/11 7/111/12
f 7/7/13 8/8/14 2/2/15 1/112/16
f 2/2/17 8/8/18 6/6/19 4/4/20
f 7/111/21 1/1/22 3/3/23 5/5/24
f 9/9/25 10/110/26 12/122/27 11/119/28
f 11/12/29 12/11/30 14/13/31 13/120/32
f 13/14/33 14/121/34 16/109/35 15/105/36
f 15/16/37 16/15/38 10/10/39 9/106/40
f 10/10/41 16/15/42 14/13/43 12/11/44
f 15/105/45 9/9/46 11/119/47 13/14/48
f 17/17/49 18/108/50 20/118/51 19/115/52
f 19/20/53 20/19/54 22/21/55 21/116/56
f 21/22/57 22/117/58 24/107/59 23/103/60
f 23/24/61 24/23/62 18/18/63 17/104/64
f 18/18/65 24/23/66 22/21/67 20/19/68
f 23/103/69 17/17/70 19/115/71 21/22/72
s 1
f 36/25/73 33/26/74 26/27/75 28/90/76
s off
f 37/29/77 38/88/78 39/31/79 40/86/80
s 2
f 34/33/81 35/92/82 30/35/83 32/94/84
s 3
f 33/95/85 34/93/86 32/36/87 26/96/88
s 4
f 26/96/89 32/36/90 30/87/91 28/28/92
s off
f 31/37/93 25/38/94 27/101/95 29/98/96
s 3
f 31/37/97 34/93/86 33/95/85 25/38/98
s 2
f 29/40/99 35/92/82 34/33/81 31/99/100
s off
f 27/39/101 36/91/102 35/34/103 29/97/104
s 1
f 25/102/105 33/26/74 36/25/73 27/100/106
s off
f 35/34/107 36/91/108 38/88/109 37/29/110
s 1
f 36/25/73 28/90/76 39/89/111 38/30/112
s 4
f 28/28/92 30/87/91 40/86/113 39/31/114
s 2
f 30/35/83 35/92/82 37/85/115 40/32/116
s 5
f 41/77/117 42/84/118 52/75/119 51/68/120
f 42/84/118 43/83/121 53/74/122 52/75/119
f 43/83/121 44/82/123 54/73/124 53/74/122
f 44/82/123 45/63/125 55/66/126 54/73/124
f 45/64/125 46/81/127 56/72/128 55/65/126
f 46/81/127 47/80/129 57/71/130 56/72/128
f 47/80/129 48/79/131 58/70/132 57/71/130
f 48/79/131 49/78/133 59/69/134 58/70/132
f 49/78/133 50/76/135 60/67/136 59/69/134
f 50/76/135 41/77/117 51/68/120 60/67/136
f 42/42/118 41/41/117 61/61/137
f 43/45/121 42/42/118 61/61/137
f 44/47/123 43/45/121 61/61/137
f 45/49/125 44/47/123 61/61/137
f 46/51/127 45/49/125 61/61/137
f 47/53/129 46/51/127 61/61/137
f 48/55/131 47/53/129 61/61/137
f 49/57/133 48/55/131 61/61/137
f 50/59/135 49/57/133 61/61/137
f 41/41/117 50/59/135 61/61/137
f 51/44/120 52/43/119 62/62/138
f 52/43/119 53/46/122 62/62/138
f 53/46/122 54/48/124 62/62/138
f 54/48/124 55/50/126 62/62/138
f 55/50/126 56/52/128 62/62/138
f 56/52/128 57/54/130 62/62/138
f 57/54/130 58/56/132 62/62/138
f 58/56/132 59/58/134 62/62/138
f 59/58/134 60/60/136 62/62/138
f 60/60/136 51/44/120 62/62/138
