# This file uses centimeters as units for non-parametric coordinates.

mtllib Anteckningsbok.mtl
g default
v -2.971009 0.000000 2.000000
v -2.890742 0.000000 2.000000
v 0.000000 0.000000 2.000000
v 2.890742 0.000000 2.000000
v 2.971009 0.000000 2.000000
v -2.971009 0.271366 2.000000
v -2.890742 0.271366 2.000000
v 0.000000 0.271366 2.000000
v 2.890742 0.271366 2.000000
v 2.971009 0.271366 2.000000
v -2.971009 0.271366 1.892135
v -2.907155 0.271366 1.902185
v 0.000000 0.271366 1.902185
v 2.907155 0.271366 1.902185
v 2.971009 0.271366 1.892135
v -2.971009 0.271366 -1.892135
v -2.907155 0.271366 -1.902185
v 0.000000 0.271366 -1.902185
v 2.907155 0.271366 -1.902185
v 2.971009 0.271366 -1.892135
v -2.971009 0.271366 -2.000000
v -2.890742 0.271366 -2.000000
v 0.000000 0.271366 -2.000000
v 2.890742 0.271366 -2.000000
v 2.971009 0.271366 -2.000000
v -2.971009 0.000000 -2.000000
v -2.890742 0.000000 -2.000000
v 0.000000 0.000000 -2.000000
v 2.890742 0.000000 -2.000000
v 2.971009 0.000000 -2.000000
v -2.971009 0.000000 -1.892135
v -2.799159 0.000000 -1.764267
v 0.000000 0.000000 -1.764267
v 2.799159 0.000000 -1.764267
v 2.971009 0.000000 -1.892135
v -2.971009 0.000000 1.892135
v -2.828150 0.000000 1.764267
v 0.000000 0.000000 1.764267
v 2.828150 0.000000 1.764267
v 2.971009 0.000000 1.892135
v -2.807394 0.351836 1.902185
v -2.807394 0.351836 -1.902185
v 0.000000 0.298593 1.902185
v 0.000000 0.298593 -1.902185
v 2.807394 0.351836 1.902185
v 2.807394 0.351836 -1.902185
v 0.848445 0.000000 2.000000
v 0.848445 0.000000 1.764267
v 0.848445 0.000000 -1.764267
v 0.848445 0.000000 -2.000000
v 0.848445 0.271366 -2.000000
v 0.848445 0.271366 -1.902185
v 0.610307 0.445323 -1.902185
v 0.610307 0.445323 1.902185
v 0.848445 0.271366 1.902185
v 0.848445 0.271366 2.000000
v -0.848445 0.000000 2.000000
v -0.848445 0.000000 1.764267
v -0.848445 0.000000 -1.764267
v -0.848445 0.000000 -2.000000
v -0.848445 0.271366 -2.000000
v -0.848445 0.271366 -1.902185
v -0.610307 0.445323 -1.902185
v -0.610307 0.445323 1.902185
v -0.848445 0.271366 1.902185
v -0.848445 0.271366 2.000000
v 0.290374 0.000000 2.000000
v 0.424223 0.000000 1.764267
v 0.424223 0.000000 -1.764267
v 0.424223 0.000000 -2.000000
v 0.290374 0.271366 -2.000000
v 0.424223 0.271366 -1.902185
v 0.305435 0.388308 -1.902185
v 0.305435 0.388308 1.902185
v 0.424223 0.271366 1.902185
v 0.424223 0.271366 2.000000
v -0.290374 0.000000 2.000000
v -0.424223 0.000000 1.764267
v -0.424223 0.000000 -1.764267
v -0.424223 0.000000 -2.000000
v -0.290374 0.271366 -2.000000
v -0.424223 0.271366 -1.902185
v -0.305435 0.388308 -1.902185
v -0.305435 0.388308 1.902185
v -0.424223 0.271366 1.902185
v -0.424223 0.271366 2.000000
v 1.244386 0.000000 2.000000
v 1.244386 0.271366 2.000000
v 1.244386 0.271366 1.902185
v 1.013355 0.448130 1.902185
v 1.013355 0.448130 -1.902185
v 1.244386 0.271366 -1.902185
v 1.244386 0.271366 -2.000000
v 1.244386 0.000000 -2.000000
v 1.244386 0.000000 -1.764267
v 1.244386 0.000000 1.764267
v -1.244386 0.000000 2.000000
v -1.244386 0.271366 2.000000
v -1.244386 0.271366 1.902185
v -1.013355 0.448130 1.902185
v -1.013355 0.448130 -1.902185
v -1.244386 0.271366 -1.902185
v -1.244386 0.271366 -2.000000
v -1.244386 0.000000 -2.000000
v -1.244386 0.000000 -1.764267
v -1.244386 0.000000 1.764267
vt 0.032106 0.113424
vt 0.022209 0.113424
vt 0.022209 0.088524
vt 0.032106 0.088524
vt 0.379338 0.113424
vt 0.379338 0.088524
vt 0.389235 0.088524
vt 0.389235 0.113424
vt 0.379337 0.081212
vt 0.379337 0.056312
vt 0.389234 0.056312
vt 0.389234 0.081212
vt 0.032106 0.081212
vt 0.032106 0.056312
vt 0.022209 0.081212
vt 0.022209 0.056312
vt 0.553031 0.407051
vt 0.545666 0.407051
vt 0.547172 0.398076
vt 0.553031 0.397153
vt 0.394603 0.407051
vt 0.394603 0.398076
vt 0.562073 0.007813
vt 0.553031 0.049922
vt 0.358272 0.407051
vt 0.358272 0.398076
vt 0.911148 0.019573
vt 0.562073 0.019573
vt 0.545666 0.040025
vt 0.553031 0.040025
vt 0.319347 0.407051
vt 0.319347 0.398076
vt 0.911148 0.184425
vt 0.562073 0.184425
vt 0.394603 0.049000
vt 0.394603 0.040025
vt 0.280422 0.407051
vt 0.280422 0.398076
vt 0.911148 0.221408
vt 0.562073 0.221408
vt 0.358272 0.049000
vt 0.358272 0.040025
vt 0.241497 0.407051
vt 0.241497 0.398076
vt 0.911148 0.249867
vt 0.562073 0.249867
vt 0.319347 0.049000
vt 0.307066 0.040025
vt 0.202572 0.407051
vt 0.202572 0.398076
vt 0.911148 0.279077
vt 0.562073 0.279077
vt 0.280422 0.049000
vt 0.280422 0.040025
vt 0.166241 0.407051
vt 0.166241 0.398076
vt 0.911148 0.308286
vt 0.562073 0.308286
vt 0.241497 0.049000
vt 0.253778 0.040025
vt 0.015177 0.407051
vt 0.911148 0.550341
vt 0.911148 0.336745
vt 0.562073 0.336745
vt 0.202572 0.049000
vt 0.202572 0.040025
vt 0.007812 0.407051
vt 0.007813 0.397153
vt 0.911148 0.373728
vt 0.562073 0.373728
vt 0.166241 0.049000
vt 0.166241 0.040025
vt 0.007813 0.049922
vt 0.013671 0.049000
vt 0.911148 0.538580
vt 0.562073 0.538580
vt 0.015177 0.040025
vt 0.007813 0.040025
vt 0.553031 0.781389
vt 0.545667 0.781389
vt 0.537263 0.759759
vt 0.553031 0.771492
vt 0.394602 0.781389
vt 0.394602 0.759759
vt 0.539923 0.435993
vt 0.553031 0.424260
vt 0.358272 0.781389
vt 0.358272 0.759759
vt 0.394603 0.435993
vt 0.545667 0.414363
vt 0.553031 0.414363
vt 0.319347 0.781389
vt 0.319347 0.759759
vt 0.358272 0.435993
vt 0.394603 0.414363
vt 0.280422 0.781389
vt 0.280422 0.759759
vt 0.319347 0.435993
vt 0.358272 0.414363
vt 0.241497 0.781389
vt 0.241497 0.759759
vt 0.280422 0.435993
vt 0.307066 0.414363
vt 0.202572 0.781389
vt 0.202572 0.759759
vt 0.241497 0.435993
vt 0.280422 0.414363
vt 0.166241 0.781389
vt 0.166241 0.759759
vt 0.202572 0.435993
vt 0.253778 0.414363
vt 0.015177 0.781389
vt 0.023581 0.759759
vt 0.166241 0.435993
vt 0.202572 0.414363
vt 0.007813 0.781389
vt 0.007813 0.771492
vt 0.020921 0.435993
vt 0.166241 0.414363
vt 0.007813 0.424260
vt 0.015178 0.414363
vt 0.007813 0.414363
vt 0.943282 0.015177
vt 0.918383 0.015177
vt 0.918383 0.007813
vt 0.943282 0.007813
vt 0.943282 0.166241
vt 0.918383 0.166241
vt 0.943282 0.202572
vt 0.918383 0.202572
vt 0.943282 0.253778
vt 0.918383 0.241497
vt 0.943282 0.280422
vt 0.918383 0.280422
vt 0.943282 0.307066
vt 0.918383 0.319347
vt 0.943282 0.358272
vt 0.918383 0.358272
vt 0.943282 0.394602
vt 0.918383 0.394603
vt 0.943282 0.545666
vt 0.918383 0.545667
vt 0.918383 0.553032
vt 0.943282 0.553031
vt 0.545667 0.032712
vt 0.545667 0.007813
vt 0.553032 0.007813
vt 0.553032 0.032712
vt 0.394603 0.032712
vt 0.394603 0.007813
vt 0.358272 0.032712
vt 0.358272 0.007813
vt 0.307066 0.032712
vt 0.319347 0.007813
vt 0.280422 0.032712
vt 0.280422 0.007813
vt 0.253778 0.032712
vt 0.241497 0.007813
vt 0.202572 0.032712
vt 0.202572 0.007813
vt 0.166241 0.032712
vt 0.166241 0.007813
vt 0.015177 0.032712
vt 0.015177 0.007813
vt 0.007813 0.007813
vt 0.007813 0.032712
vt 0.956264 0.246538
vt 0.966994 0.235638
vt 0.966994 0.274563
vt 0.964496 0.274563
vt 0.951032 0.218564
vt 0.966994 0.196713
vt 0.966994 0.313489
vt 0.956264 0.302589
vt 0.950775 0.181581
vt 0.966994 0.160383
vt 0.966994 0.352414
vt 0.951032 0.330563
vt 0.966994 0.007813
vt 0.959610 0.016966
vt 0.966994 0.388744
vt 0.950775 0.367546
vt 0.966994 0.541314
vt 0.959610 0.532161
vt 0.975968 0.274563
vt 0.975968 0.235638
vt 0.986698 0.246538
vt 0.978467 0.274563
vt 0.975968 0.196713
vt 0.991930 0.218564
vt 0.986698 0.302589
vt 0.975968 0.313489
vt 0.975968 0.160383
vt 0.992188 0.181581
vt 0.991930 0.330563
vt 0.975968 0.352414
vt 0.975968 0.007813
vt 0.983352 0.016966
vt 0.992187 0.367546
vt 0.975968 0.388744
vt 0.975968 0.541314
vt 0.983352 0.532161
vt 0.013671 0.398076
vt 0.562073 0.550341
vt 0.911148 0.007813
vt 0.547172 0.049000
vn 0.000000 0.000000 1.000000
vn 0.000000 0.000000 1.000000
vn 0.000000 0.000000 1.000000
vn 0.000000 0.000000 1.000000
vn 0.000000 0.000000 1.000000
vn 0.000000 0.000000 1.000000
vn 0.000000 0.000000 1.000000
vn 0.000000 0.000000 1.000000
vn 0.000000 0.000000 1.000000
vn 0.000000 0.000000 1.000000
vn 0.000000 0.000000 1.000000
vn 0.000000 0.000000 1.000000
vn 0.000000 0.000000 1.000000
vn 0.000000 0.000000 1.000000
vn 0.000000 0.000000 1.000000
vn 0.000000 0.000000 1.000000
vn 0.000000 1.000000 0.000000
vn 0.000000 1.000000 0.000000
vn 0.000000 1.000000 0.000000
vn 0.000000 1.000000 0.000000
vn 0.000000 1.000000 0.000000
vn 0.000000 1.000000 0.000000
vn 0.000000 1.000000 0.000000
vn 0.000000 1.000000 0.000000
vn 0.000000 1.000000 0.000000
vn 0.000000 1.000000 0.000000
vn 0.000000 1.000000 0.000000
vn 0.000000 1.000000 0.000000
vn 0.000000 1.000000 -0.000000
vn 0.000000 1.000000 -0.000000
vn 0.000000 1.000000 -0.000000
vn 0.000000 1.000000 -0.000000
vn 0.000000 1.000000 0.000000
vn 0.000000 1.000000 0.000000
vn 0.233759 0.972295 0.000000
vn 0.233759 0.972295 0.000000
vn 0.000000 1.000000 0.000000
vn 0.000000 1.000000 0.000000
vn -0.084204 0.996449 0.000000
vn -0.084204 0.996449 0.000000
vn 0.042512 0.999096 0.000000
vn 0.042512 0.999096 0.000000
vn 0.000000 1.000000 0.000000
vn 0.000000 1.000000 0.000000
vn 0.000000 1.000000 0.000000
vn 0.000000 1.000000 0.000000
vn 0.000000 1.000000 0.000000
vn 0.000000 1.000000 0.000000
vn 0.000000 1.000000 0.000000
vn 0.000000 1.000000 0.000000
vn 0.000000 1.000000 0.000000
vn 0.000000 1.000000 0.000000
vn 0.000000 1.000000 0.000000
vn 0.000000 1.000000 0.000000
vn 0.000000 1.000000 0.000000
vn 0.000000 1.000000 0.000000
vn 0.000000 0.000000 -1.000000
vn 0.000000 0.000000 -1.000000
vn 0.000000 0.000000 -1.000000
vn 0.000000 0.000000 -1.000000
vn 0.000000 0.000000 -1.000000
vn 0.000000 0.000000 -1.000000
vn 0.000000 0.000000 -1.000000
vn 0.000000 0.000000 -1.000000
vn 0.000000 0.000000 -1.000000
vn 0.000000 0.000000 -1.000000
vn 0.000000 0.000000 -1.000000
vn 0.000000 0.000000 -1.000000
vn 0.000000 0.000000 -1.000000
vn 0.000000 0.000000 -1.000000
vn 0.000000 0.000000 -1.000000
vn 0.000000 0.000000 -1.000000
vn 0.000000 -1.000000 0.000000
vn 0.000000 -1.000000 0.000000
vn 0.000000 -1.000000 0.000000
vn 0.000000 -1.000000 0.000000
vn 0.000000 -1.000000 0.000000
vn 0.000000 -1.000000 0.000000
vn 0.000000 -1.000000 0.000000
vn 0.000000 -1.000000 0.000000
vn 0.000000 -1.000000 0.000000
vn 0.000000 -1.000000 0.000000
vn 0.000000 -1.000000 0.000000
vn 0.000000 -1.000000 0.000000
vn 0.000000 -1.000000 0.000000
vn 0.000000 -1.000000 0.000000
vn 0.000000 -1.000000 0.000000
vn 0.000000 -1.000000 0.000000
vn 0.000000 -1.000000 0.000000
vn 0.000000 -1.000000 0.000000
vn 0.000000 -1.000000 0.000000
vn 0.000000 -1.000000 0.000000
vn 0.000000 -1.000000 0.000000
vn 0.000000 -1.000000 0.000000
vn 0.000000 -1.000000 0.000000
vn 0.000000 -1.000000 0.000000
vn 0.000000 -1.000000 0.000000
vn 0.000000 -1.000000 0.000000
vn 0.000000 -1.000000 0.000000
vn 0.000000 -1.000000 0.000000
vn 0.000000 -1.000000 0.000000
vn 0.000000 -1.000000 0.000000
vn 0.000000 -1.000000 0.000000
vn 0.000000 -1.000000 0.000000
vn 1.000000 -0.000000 0.000000
vn 1.000000 0.000000 0.000000
vn 1.000000 0.000000 0.000000
vn 1.000000 -0.000000 0.000000
vn 1.000000 -0.000000 0.000000
vn 1.000000 -0.000000 0.000000
vn 1.000000 0.000000 0.000000
vn 1.000000 0.000000 0.000000
vn -1.000000 0.000000 0.000000
vn -1.000000 0.000000 0.000000
vn -1.000000 0.000000 0.000000
vn -1.000000 0.000000 0.000000
vn -1.000000 0.000000 0.000000
vn -1.000000 0.000000 0.000000
vn -1.000000 0.000000 0.000000
vn -1.000000 0.000000 0.000000
vn -0.627837 0.778345 0.000000
vn -0.627837 0.778345 0.000000
vn -0.627837 0.778345 0.000000
vn -0.627837 0.778345 0.000000
vn -0.000000 0.000000 1.000000
vn -0.000000 0.000000 1.000000
vn 0.000000 0.000000 1.000000
vn 0.000000 0.000000 1.000000
vn -0.000000 0.000000 -1.000000
vn 0.000000 0.000000 -1.000000
vn -0.000000 0.000000 -1.000000
vn -0.000000 0.000000 -1.000000
vn 0.000000 0.000000 1.000000
vn 0.000000 0.000000 1.000000
vn -0.000000 -0.000000 1.000000
vn -0.000000 -0.000000 1.000000
vn 0.627837 0.778345 0.000000
vn 0.627837 0.778345 0.000000
vn 0.627837 0.778345 0.000000
vn 0.627837 0.778345 0.000000
vn 0.000000 0.000000 -1.000000
vn 0.000000 0.000000 -1.000000
vn -0.000000 0.000000 -1.000000
vn -0.000000 0.000000 -1.000000
vn 0.000000 -1.000000 0.000000
vn 0.000000 -1.000000 0.000000
vn 0.000000 -1.000000 0.000000
vn 0.000000 -1.000000 0.000000
vn 0.000000 0.000000 -1.000000
vn 0.000000 0.000000 -1.000000
vn 0.000000 1.000000 0.000000
vn 0.000000 1.000000 0.000000
vn -0.000000 0.000000 -1.000000
vn 0.000000 0.000000 -1.000000
vn -0.233759 0.972295 0.000000
vn -0.233759 0.972295 0.000000
vn 0.000000 0.000000 1.000000
vn 0.000000 0.000000 1.000000
vn 0.000000 1.000000 0.000000
vn 0.000000 1.000000 0.000000
vn 0.000000 0.000000 1.000000
vn 0.000000 0.000000 1.000000
vn 0.000000 -1.000000 0.000000
vn 0.000000 -1.000000 0.000000
vn 0.000000 -1.000000 0.000000
vn 0.000000 -1.000000 0.000000
vn 0.000000 0.000000 -1.000000
vn 0.000000 0.000000 -1.000000
vn 0.000000 1.000000 0.000000
vn 0.000000 1.000000 0.000000
vn -0.000000 0.000000 -1.000000
vn -0.000000 0.000000 -1.000000
vn 0.000000 0.000000 -1.000000
vn 0.000000 0.000000 -1.000000
vn -0.053597 0.998563 0.000000
vn -0.053597 0.998563 0.000000
vn -0.042512 0.999096 0.000000
vn -0.042512 0.999096 0.000000
vn 0.000000 -0.000000 1.000000
vn 0.000000 -0.000000 1.000000
vn 0.000000 -0.000000 1.000000
vn 0.000000 -0.000000 1.000000
vn 0.000000 1.000000 0.000000
vn 0.000000 1.000000 0.000000
vn 0.000000 0.000000 1.000000
vn 0.000000 0.000000 1.000000
vn 0.000001 0.000000 -1.000000
vn 0.000001 0.000000 -1.000000
vn 0.000000 0.000000 1.000000
vn 0.000000 0.000000 1.000000
vn 0.000000 -1.000000 0.000000
vn 0.000000 -1.000000 0.000000
vn 0.000000 -1.000000 0.000000
vn 0.000000 -1.000000 0.000000
vn 0.000000 0.000000 -1.000000
vn 0.000000 0.000000 -1.000000
vn 0.000000 1.000000 0.000000
vn 0.000000 1.000000 0.000000
vn 0.000000 0.000000 -1.000000
vn 0.000000 0.000000 -1.000000
vn 0.084204 0.996449 0.000000
vn 0.084204 0.996449 0.000000
vn -0.000000 0.000000 1.000000
vn -0.000000 0.000000 1.000000
vn 0.000000 1.000000 0.000000
vn 0.000000 1.000000 0.000000
vn 0.000000 0.000000 1.000000
vn 0.000000 0.000000 1.000000
vn -0.000000 -0.000000 1.000000
vn -0.000000 -0.000000 1.000000
vn 0.053597 0.998563 0.000000
vn 0.053597 0.998563 0.000000
vn 0.000000 0.000000 -1.000000
vn 0.000000 0.000000 -1.000000
s 1
g Anteckningsbok
usemtl initialShadingGroup
f 2/123/1 7/124/2 6/125/3 1/126/4
f 3/133/5 8/134/6 86/132/7 77/131/8
f 87/139/9 88/140/10 56/138/11 47/137/12
f 10/143/13 9/142/14 4/141/15 5/144/16
s 4
f 6/17/17 7/18/18 12/19/19 11/20/20
f 85/32/21 86/31/22 8/37/23 13/38/24
f 55/50/25 56/49/26 88/55/27 89/56/28
f 9/61/29 10/67/30 15/68/31 14/203/32
f 11/20/20 12/19/19 17/206/33 16/24/34
s 8
f 83/46/35 84/45/36 43/51/37 44/52/38
f 53/64/39 54/63/40 90/69/41 91/70/42
s 4
f 14/203/32 15/68/31 20/73/43 19/74/44
f 16/24/34 17/206/33 22/29/45 21/30/46
f 81/48/47 82/47/48 18/53/49 23/54/50
f 51/66/51 52/65/52 92/71/53 93/72/54
f 19/74/44 20/73/43 25/78/55 24/77/56
s 12
f 22/145/57 27/146/58 26/147/59 21/148/60
f 23/155/61 28/156/62 80/154/63 81/153/64
f 93/161/65 94/162/66 50/160/67 51/159/68
f 30/165/69 29/164/70 24/163/71 25/166/72
s 15
f 26/79/73 27/80/74 32/81/75 31/82/76
f 79/93/77 80/92/78 28/96/79 33/97/80
f 49/105/81 50/104/82 94/108/83 95/109/84
f 29/112/85 30/116/86 35/117/87 34/113/88
f 31/82/76 32/81/75 37/85/89 36/86/90
f 78/98/91 79/93/77 33/97/80 38/102/92
f 48/110/93 49/105/81 95/109/84 96/114/94
f 34/113/88 35/117/87 40/120/95 39/118/96
f 36/86/90 37/85/89 2/90/97 1/91/98
f 3/107/99 77/103/100 78/98/91 38/102/92
f 96/114/94 87/119/101 47/115/102 48/110/93
f 39/118/96 40/120/95 5/122/103 4/121/104
s 19
f 35/1/105 30/2/106 25/3/107 20/4/108
f 40/5/109 35/1/105 20/4/108 15/6/110
f 10/7/111 5/8/112 40/5/109 15/6/110
s 20
f 31/9/113 16/10/114 21/11/115 26/12/116
f 36/13/117 11/14/118 16/10/114 31/9/113
f 1/15/119 6/16/120 11/14/118 36/13/117
s off
f 17/23/121 12/205/122 41/27/123 42/28/124
s 21
f 84/167/125 85/168/126 13/169/127 43/170/128
s 22
f 18/185/129 82/186/130 83/187/131 44/188/132
s 23
f 54/178/133 55/177/134 89/181/135 90/182/136
s off
f 14/62/137 19/204/138 46/76/139 45/75/140
s 24
f 91/199/141 92/200/142 52/196/143 53/195/144
s 15
f 48/110/93 47/115/102 67/111/145 68/106/146
f 68/106/146 69/101/147 49/105/81 48/110/93
f 69/101/147 70/100/148 50/104/82 49/105/81
s 12
f 51/159/68 50/160/67 70/158/149 71/157/150
s 4
f 71/60/151 72/59/152 52/65/52 51/66/51
s 24
f 53/195/144 52/196/143 72/192/153 73/191/154
s 8
f 73/58/155 74/57/156 54/63/40 53/64/39
s 23
f 74/174/157 75/173/158 55/177/134 54/178/133
s 4
f 75/44/159 76/43/160 56/49/26 55/50/25
s 1
f 47/137/12 56/138/11 76/136/161 67/135/162
s 15
f 106/89/163 97/95/164 2/90/97 37/85/89
f 37/85/89 32/81/75 105/84/165 106/89/163
f 32/81/75 27/80/74 104/83/166 105/84/165
s 12
f 103/149/167 104/150/168 27/146/58 22/145/57
s 4
f 22/29/45 17/206/33 102/35/169 103/36/170
s 22
f 101/194/171 102/193/172 17/197/173 42/198/174
s 8
f 42/28/175 41/27/176 100/33/177 101/34/178
s 21
f 12/179/179 99/176/180 100/175/181 41/180/182
s 4
f 12/19/19 7/18/18 98/21/183 99/22/184
s 1
f 97/127/185 98/128/186 7/124/2 2/123/1
s 15
f 68/106/146 67/111/145 3/107/99 38/102/92
f 38/102/92 33/97/80 69/101/147 68/106/146
f 33/97/80 28/96/79 70/100/148 69/101/147
s 12
f 71/157/150 70/158/149 28/156/62 23/155/61
s 4
f 23/54/50 18/53/49 72/59/152 71/60/151
s 24
f 73/191/154 72/192/153 18/185/187 44/188/188
s 8
f 44/52/38 43/51/37 74/57/156 73/58/155
s 23
f 13/169/189 75/173/158 74/174/157 43/170/190
s 4
f 13/38/24 8/37/23 76/43/160 75/44/159
s 1
f 67/135/162 76/136/161 8/134/6 3/133/5
s 15
f 78/98/91 77/103/100 57/99/191 58/94/192
f 58/94/192 59/88/193 79/93/77 78/98/91
f 59/88/193 60/87/194 80/92/78 79/93/77
s 12
f 81/153/64 80/154/63 60/152/195 61/151/196
s 4
f 61/42/197 62/41/198 82/47/48 81/48/47
s 22
f 83/187/131 82/186/130 62/189/199 63/190/200
s 8
f 63/40/201 64/39/202 84/45/36 83/46/35
s 21
f 64/171/203 65/172/204 85/168/126 84/167/125
s 4
f 65/26/205 66/25/206 86/31/22 85/32/21
s 1
f 77/131/8 86/132/7 66/130/207 57/129/208
f 4/141/15 9/142/14 88/140/10 87/139/9
s 4
f 89/56/28 88/55/27 9/61/29 14/203/32
s 23
f 90/182/136 89/181/135 14/183/209 45/184/210
s 8
f 91/70/42 90/69/41 45/75/211 46/76/212
s 24
f 19/201/213 92/200/142 91/199/141 46/202/214
s 4
f 93/72/54 92/71/53 19/74/44 24/77/56
s 12
f 24/163/71 29/164/70 94/162/66 93/161/65
s 15
f 95/109/84 94/108/83 29/112/85 34/113/88
f 96/114/94 95/109/84 34/113/88 39/118/96
f 4/121/104 87/119/101 96/114/94 39/118/96
s 1
f 57/129/208 66/130/207 98/128/186 97/127/185
s 4
f 99/22/184 98/21/183 66/25/206 65/26/205
s 21
f 100/175/181 99/176/180 65/172/204 64/171/203
s 8
f 101/34/178 100/33/177 64/39/202 63/40/201
s 22
f 63/190/200 62/189/199 102/193/172 101/194/171
s 4
f 103/36/170 102/35/169 62/41/198 61/42/197
s 12
f 61/151/196 60/152/195 104/150/168 103/149/167
s 15
f 105/84/165 104/83/166 60/87/194 59/88/193
f 106/89/163 105/84/165 59/88/193 58/94/192
f 58/94/192 57/99/191 97/95/164 106/89/163
