# This file uses centimeters as units for non-parametric coordinates.

mtllib Penna.mtl
g default
v -0.176777 0.073223 1.209468
v 0.000000 0.000000 1.209468
v 0.176777 0.073223 1.209468
v 0.250000 0.250000 1.209468
v 0.176777 0.426777 1.209468
v 0.000000 0.500000 1.209468
v -0.176777 0.426777 1.209468
v -0.250000 0.250000 1.209468
v -0.000000 0.250000 -1.298386
v 0.000000 0.250000 1.742210
v -0.045852 0.204147 1.614540
v 0.000000 0.185155 1.614540
v 0.045852 0.204147 1.614540
v 0.064845 0.250000 1.614540
v 0.045852 0.295852 1.614540
v 0.000000 0.314845 1.614540
v -0.045852 0.295852 1.614540
v -0.064845 0.250000 1.614540
v -0.176777 0.073223 -1.298386
v -0.000000 0.000000 -1.298386
v 0.176777 0.073223 -1.298386
v 0.250000 0.250000 -1.298386
v 0.176777 0.426777 -1.298386
v -0.000000 0.500000 -1.298386
v -0.176777 0.426777 -1.298386
v -0.250000 0.250000 -1.298386
vt 0.375000 0.688440
vt 0.406250 0.688440
vt 0.437500 0.688440
vt 0.468750 0.688440
vt 0.500000 0.688440
vt 0.531250 0.688440
vt 0.562500 0.688440
vt 0.593750 0.688440
vt 0.625000 0.688440
vt 0.610485 0.733265
vt 0.500000 0.687500
vt 0.389515 0.733265
vt 0.343750 0.843750
vt 0.389515 0.954235
vt 0.500000 1.000000
vt 0.610485 0.954235
vt 0.656250 0.843750
vt 0.500000 0.837500
vt 0.528658 0.867779
vt 0.500000 0.879649
vt 0.471342 0.867779
vt 0.459472 0.839121
vt 0.471342 0.810463
vt 0.500000 0.798593
vt 0.528658 0.810463
vt 0.540528 0.839121
vt 0.500000 0.000000
vt 0.610485 0.045765
vt 0.389515 0.045765
vt 0.343750 0.156250
vt 0.389515 0.266735
vt 0.500000 0.312500
vt 0.610485 0.266735
vt 0.656250 0.156250
vt 0.500000 0.150000
vt 0.375000 0.317334
vt 0.406250 0.317334
vt 0.437500 0.317334
vt 0.468750 0.317334
vt 0.500000 0.317334
vt 0.531250 0.317334
vt 0.562500 0.317334
vt 0.593750 0.317334
vt 0.625000 0.317334
vn -0.382683 -0.923880 0.000000
vn -0.382683 -0.923880 0.000000
vn -0.382683 -0.923880 0.000000
vn -0.382683 -0.923880 0.000000
vn 0.382683 -0.923880 0.000000
vn 0.382683 -0.923880 0.000000
vn 0.382683 -0.923880 0.000000
vn 0.382683 -0.923880 0.000000
vn 0.923880 -0.382683 0.000000
vn 0.923880 -0.382683 0.000000
vn 0.923880 -0.382683 0.000000
vn 0.923880 -0.382683 0.000000
vn 0.923880 0.382683 0.000000
vn 0.923880 0.382683 0.000000
vn 0.923880 0.382683 0.000000
vn 0.923880 0.382683 0.000000
vn 0.382683 0.923880 -0.000000
vn 0.382683 0.923880 -0.000000
vn 0.382683 0.923880 -0.000000
vn 0.382683 0.923880 -0.000000
vn -0.382683 0.923880 0.000000
vn -0.382683 0.923880 0.000000
vn -0.382683 0.923880 0.000000
vn -0.382683 0.923880 0.000000
vn -0.923880 0.382683 0.000000
vn -0.923880 0.382683 0.000000
vn -0.923880 0.382683 0.000000
vn -0.923880 0.382683 0.000000
vn -0.923880 -0.382683 0.000000
vn -0.923880 -0.382683 0.000000
vn -0.923880 -0.382683 0.000000
vn -0.923880 -0.382683 0.000000
vn -0.643108 -0.643108 0.415720
vn 0.000000 -0.909493 0.415720
vn 0.000000 -0.908621 0.417621
vn -0.642492 -0.642493 0.417621
vn 0.643108 -0.643108 0.415720
vn 0.642492 -0.642492 0.417621
vn 0.909493 0.000000 0.415720
vn 0.908621 0.000000 0.417621
vn 0.643108 0.643108 0.415720
vn 0.642492 0.642492 0.417621
vn 0.000000 0.909493 0.415720
vn 0.000000 0.908621 0.417621
vn -0.643108 0.643108 0.415720
vn -0.642492 0.642492 0.417621
vn -0.909493 -0.000000 0.415720
vn -0.908621 -0.000000 0.417621
vn -0.000000 0.000000 1.000000
vn 0.000000 0.000000 -1.000000
vn 0.000000 0.000000 -1.000000
vn 0.000000 0.000000 -1.000000
vn 0.000000 0.000000 -1.000000
vn 0.000000 0.000000 -1.000000
vn 0.000000 0.000000 -1.000000
vn 0.000000 0.000000 -1.000000
vn 0.000000 0.000000 -1.000000
vn 0.000000 0.000000 -1.000000
s off
g Penna
usemtl initialShadingGroup
f 2/2/1 1/1/2 19/36/3 20/37/4
f 3/3/5 2/2/6 20/37/7 21/38/8
f 4/4/9 3/3/10 21/38/11 22/39/12
f 5/5/13 4/4/14 22/39/15 23/40/16
f 6/6/17 5/5/18 23/40/19 24/41/20
f 7/7/21 6/6/22 24/41/23 25/42/24
f 8/8/25 7/7/26 25/42/27 26/43/28
f 1/9/29 8/8/30 26/43/31 19/44/32
s 1
f 1/16/33 2/15/34 12/20/35 11/19/36
f 2/15/34 3/14/37 13/21/38 12/20/35
f 3/14/37 4/13/39 14/22/40 13/21/38
f 4/13/39 5/12/41 15/23/42 14/22/40
f 5/12/41 6/11/43 16/24/44 15/23/42
f 6/11/43 7/10/45 17/25/46 16/24/44
f 7/10/45 8/17/47 18/26/48 17/25/46
f 8/17/47 1/16/33 11/19/36 18/26/48
f 11/19/36 12/20/35 10/18/49
f 12/20/35 13/21/38 10/18/49
f 13/21/38 14/22/40 10/18/49
f 14/22/40 15/23/42 10/18/49
f 15/23/42 16/24/44 10/18/49
f 16/24/44 17/25/46 10/18/49
f 17/25/46 18/26/48 10/18/49
f 18/26/48 11/19/36 10/18/49
s 2
f 20/27/50 19/28/51 9/35/52
f 19/28/51 26/34/53 9/35/52
f 21/29/54 20/27/50 9/35/52
f 22/30/55 21/29/54 9/35/52
f 23/31/56 22/30/55 9/35/52
f 24/32/57 23/31/56 9/35/52
f 25/33/58 24/32/57 9/35/52
f 26/34/53 25/33/58 9/35/52
