# This file uses centimeters as units for non-parametric coordinates.

mtllib polaroid_1.mtl
g default
v -2.365696 88.838623 69.247314
v -2.167339 -89.058105 69.247314
v 0.135387 88.841309 69.247314
v 0.333750 -89.055420 69.247314
v 0.135387 88.841309 -69.247322
v 0.333750 -89.055420 -69.247322
v -2.365696 88.838623 -69.247322
v -2.167339 -89.058105 -69.247322
v 0.146202 79.171143 59.870644
v 0.297840 -56.839355 59.870644
v 0.297840 -56.839355 -59.870651
v 0.146202 79.171143 -59.870651
v -1.202782 79.169678 59.870644
v -1.051142 -56.840820 59.870644
v -1.051142 -56.840820 -59.870651
v -1.202782 79.169678 -59.870651
v -0.202545 2.156982 69.227188
v -0.198711 -1.293457 -69.224457
v 2.302368 -1.290771 -69.224457
v 2.301983 -0.947754 -59.853416
v 0.953037 -0.948975 -59.853416
v 0.949684 2.033936 59.850693
v 2.298664 2.035400 59.850693
v 2.298538 2.159668 69.227188
v -2.260071 -5.870117 69.247314
v 0.241013 -5.867432 69.247314
v 0.239216 -4.274902 59.870644
v -1.109734 -4.276123 59.870644
v -1.109734 -4.276123 -59.870644
v 0.239216 -4.274902 -59.870644
v 0.241013 -5.867432 -69.247322
v -2.260071 -5.870117 -69.247322
v -2.274853 7.377441 69.247314
v -2.274853 7.377441 -69.247322
v 0.226231 7.380371 -69.247322
v 0.227936 5.853760 -59.870644
v -1.121044 5.852295 -59.870644
v -1.121044 5.852295 59.870644
v 0.227936 5.853760 59.870644
v 0.226231 7.380371 69.247314
v -0.697014 89.054932 -0.995081
v -0.686234 79.384521 -0.860342
v -1.237366 79.383789 -0.860342
v -1.155598 6.066650 -0.860342
v 0.210072 0.734619 -0.861436
v -1.144321 -4.062012 -0.860342
v -1.085691 -56.626465 -0.860342
v -0.396503 -56.625977 -0.860342
v 0.299160 -88.841309 -0.995081
v -2.201923 -88.843994 -0.995083
v -2.294662 -5.656006 -0.995083
v -0.235176 0.621338 -0.993407
v -2.309437 7.591797 -0.995081
v -2.400253 89.052979 -0.995083
v 0.135387 88.841309 2.271193
v 0.146202 79.171143 1.963654
v -1.202782 79.169678 1.963654
v -1.121044 5.852295 1.963657
v 0.951290 0.591309 1.961683
v -1.109734 -4.276123 1.963654
v -1.051142 -56.840820 1.963654
v 0.297840 -56.839355 1.963654
v 0.333750 -89.055420 2.271193
v -2.167339 -89.058105 2.271196
v -2.260071 -5.870117 2.271196
v -0.200710 0.488281 2.271851
v -2.274853 7.377441 2.271193
v -2.365696 88.838623 2.271196
v -2.365696 88.838623 -4.753872
v -2.274853 7.377441 -4.753848
v -0.200485 0.313477 -4.751008
v -2.260071 -5.870117 -4.753872
v -2.167339 -89.058105 -4.753872
v 0.333750 -89.055420 -4.753848
v 0.297840 -56.839355 -4.110139
v -1.051142 -56.840820 -4.110139
v -1.109734 -4.276123 -4.110139
v 0.951485 0.440186 -4.110244
v -1.121044 5.852295 -4.110157
v -1.202782 79.169678 -4.110139
v 0.146202 79.171143 -4.110139
v 0.135387 88.841309 -4.753848
vt 0.279245 0.230645
vt 0.279518 0.251866
vt 0.265787 0.253001
vt 0.265802 0.231630
vt 0.904695 0.684658
vt 0.509625 0.230620
vt 0.279197 0.275737
vt 0.265786 0.276576
vt 0.253791 0.252428
vt 0.254118 0.230650
vt 0.279236 0.013494
vt 0.265796 0.014383
vt 0.509604 0.276151
vt 0.509646 0.013576
vt 0.778026 0.888408
vt 0.785981 0.887160
vt 0.254130 0.275742
vt 0.014983 0.258207
vt 0.014901 0.230767
vt 0.750107 0.555590
vt 0.922280 0.873881
vt 0.254247 0.578678
vt 0.014933 0.276139
vt 0.014806 0.013649
vt 0.015141 0.578958
vt 0.769890 0.256335
vt 0.770540 0.239838
vt 0.779862 0.240933
vt 0.779205 0.257214
vt 0.761754 0.256542
vt 0.762403 0.239849
vt 0.771260 0.221658
vt 0.780592 0.222550
vt 0.940080 0.251085
vt 0.939569 0.263548
vt 0.761008 0.465362
vt 0.770272 0.465864
vt 0.969673 0.262897
vt 0.595309 0.250923
vt 0.763112 0.221882
vt 0.752940 0.465491
vt 0.788523 0.019224
vt 0.779130 0.018540
vt 0.941104 0.228938
vt 0.929000 0.468256
vt 0.964189 0.276852
vt 0.590466 0.458246
vt 0.770944 0.018566
vt 0.949654 0.026179
vt 0.603682 0.012794
vt 0.592319 0.707829
vt 0.567728 0.708976
vt 0.567965 0.680637
vt 0.590577 0.688429
vt 0.591271 0.720755
vt 0.970865 0.276837
vt 0.590525 0.464442
vt 0.605067 0.552000
vt 0.612581 0.938186
vt 0.630746 0.909336
vt 0.752535 0.471919
vt 0.750144 0.552206
vt 0.771104 0.891659
vt 0.771108 0.012319
vt 0.760669 0.472316
vt 0.757254 0.553762
vt 0.778251 0.890066
vt 0.779285 0.014356
vt 0.770037 0.472186
vt 0.765367 0.552377
vt 0.786805 0.890415
vt 0.788834 0.012984
vt 0.928557 0.474165
vt 0.906223 0.552873
vt 0.949940 0.019943
vt 0.924847 0.875739
vt 0.980066 0.241473
vt 0.907937 0.675143
vt 0.906908 0.700893
vt 0.930706 0.704228
vt 0.974550 0.253685
vt 0.908064 0.684556
vt 0.279308 0.578675
vt 0.509452 0.578785
vt 0.765059 0.555742
vt 0.904018 0.555047
vt 0.254116 0.013497
vt 0.757306 0.556133
vt 0.770909 0.888287
vt 0.265900 0.579561
vt 0.594529 0.720744
vt 0.596281 0.707827
vt 0.903481 0.701070
vt 0.509571 0.246777
vt 0.904621 0.674788
vt 0.593846 0.688641
vt 0.607252 0.554405
vt 0.632702 0.906813
vt 0.792153 0.913937
vt 0.980072 0.494301
vt 0.950915 0.896885
vt 0.773820 0.915486
vt 0.782429 0.915064
vt 0.569084 0.728576
vt 0.976350 0.262882
vt 0.980067 0.276838
vt 0.931495 0.682800
vt 0.986744 0.276838
vt 0.981227 0.253685
vt 0.596410 0.216184
vt 0.596001 0.230217
vt 0.986743 0.241473
vt 0.986739 0.019400
vt 0.931490 0.670234
vt 0.980062 0.019400
vt 0.970785 0.241471
vt 0.970278 0.019400
vt 0.964108 0.241487
vt 0.963601 0.019415
vt 0.986748 0.494301
vt 0.971362 0.494298
vt 0.603879 0.006555
vt 0.964685 0.494313
vn -0.000000 0.000149 1.000000
vn 0.000000 -0.000101 1.000000
vn -0.000000 0.000188 1.000000
vn -0.000000 0.000252 1.000000
vn 0.999390 -0.034877 0.001646
vn 0.999964 0.005861 0.006197
vn 0.999894 0.014524 -0.000625
vn 0.999514 -0.031179 0.000305
vn -0.000000 0.000176 -1.000000
vn 0.000000 -0.000258 -1.000000
vn -0.000000 0.000326 -1.000000
vn -0.000000 0.000193 -1.000000
vn -0.999721 0.023612 -0.000323
vn -0.999917 -0.012918 0.000375
vn -0.999989 -0.004723 -0.000503
vn -0.999755 0.022119 -0.000883
vn 0.001074 -0.999999 -0.000026
vn 0.001074 -0.999999 0.000027
vn 0.001074 -0.999995 0.003155
vn 0.001074 -0.999995 0.003120
vn -0.001075 0.999997 -0.002310
vn -0.001075 0.999996 -0.002679
vn -0.001103 0.999999 -0.000027
vn -0.001103 0.999999 0.000532
vn 0.999568 -0.001794 -0.029334
vn 0.999557 0.004076 -0.029473
vn 0.999766 -0.021551 -0.001775
vn 0.999480 -0.032154 -0.002605
vn 0.999945 0.010537 0.000059
vn 0.999945 0.010537 -0.000007
vn 0.999984 0.001581 0.005361
vn 0.999980 0.001641 0.006048
vn 0.999427 -0.033664 0.003591
vn 0.999744 -0.022494 0.002438
vn 0.999532 -0.006913 0.029787
vn 0.999540 0.008727 0.029052
vn 0.999906 0.001667 0.013625
vn 0.999921 0.001621 0.012503
vn 0.999968 0.007397 0.002935
vn 0.999969 0.007317 -0.002768
vn -0.000000 0.000181 -1.000000
vn 0.000000 -0.000298 -1.000000
vn 0.000000 -0.000398 -1.000000
vn 0.000000 -0.000277 -1.000000
vn -0.000958 1.000000 -0.000035
vn -0.000958 0.999999 0.000597
vn -0.001081 0.999996 -0.002422
vn -0.001080 0.999996 -0.002798
vn 0.000001 -0.000204 1.000000
vn 0.000001 -0.000409 1.000000
vn -0.000000 0.000373 1.000000
vn 0.000000 -0.000227 1.000000
vn 0.001089 -0.999996 0.002616
vn 0.001088 -0.999997 0.002199
vn 0.001156 -0.999999 -0.000685
vn 0.001156 -0.999999 0.000035
vn -0.999739 -0.022852 0.000291
vn -0.999704 -0.024340 -0.000119
vn 0.000002 -0.000219 -1.000000
vn 0.000002 -0.000287 -1.000000
vn 0.999774 0.021222 0.001268
vn 0.999541 0.030251 0.001838
vn -0.000000 0.000251 1.000000
vn -0.000000 0.000178 1.000000
vn 0.999636 0.026988 0.000576
vn 0.999777 0.021127 -0.000204
vn 0.000002 0.000180 -1.000000
vn 0.000001 0.000335 -1.000000
vn 0.999501 0.031472 -0.002671
vn 0.999757 0.021961 -0.001833
vn 0.000002 -0.000284 1.000000
vn 0.000002 -0.000179 1.000000
vn 0.000000 0.000000 1.000000
vn 0.000000 0.000000 1.000000
vn 0.999999 0.001115 -0.000001
vn 0.999999 0.001115 -0.000001
vn 0.000000 0.000000 -1.000000
vn 0.000000 0.000000 -1.000000
vn 0.999999 0.001115 0.000559
vn 0.999999 0.001115 -0.000034
vn 0.000001 -0.000000 1.000000
vn 0.000001 -0.000000 1.000000
vn 0.999999 0.001115 0.000001
vn 0.999999 0.001115 0.000001
vn 0.000000 0.000000 -1.000000
vn 0.000000 0.000000 -1.000000
vn -0.999999 -0.001115 0.000026
vn -0.999999 -0.001115 -0.000486
vn -0.999999 -0.001115 -0.000520
vn -0.999999 -0.001115 -0.000028
vn 0.000002 0.000000 -1.000000
vn 0.000002 0.000000 -1.000000
vn 0.999999 0.001115 -0.000002
vn 0.999999 0.001115 -0.000002
vn 0.000000 0.000000 1.000000
vn 0.000000 0.000000 1.000000
vn 0.999999 0.001115 0.000037
vn 0.999999 0.001115 0.000605
vn 0.000002 0.000000 -1.000000
vn 0.000002 0.000000 -1.000000
vn 0.999999 0.001115 0.000002
vn 0.999999 0.001115 0.000002
vn 0.000002 0.000000 1.000000
vn 0.000002 0.000000 1.000000
vn 0.999919 0.001232 -0.012714
vn 0.999920 0.001231 -0.012625
vn 0.001088 -0.999997 -0.002073
vn 0.001088 -0.999996 -0.002538
vn 0.999999 0.001115 -0.000591
vn 0.999620 0.027525 -0.001210
vn 0.999970 -0.005030 -0.005952
vn 0.999421 -0.034019 -0.000704
vn 0.999999 0.001115 -0.000539
vn -0.001081 0.999996 0.002715
vn -0.001082 0.999997 0.002295
vn 0.999982 0.001602 -0.005839
vn 0.999985 0.001552 -0.005246
vn 0.001074 -0.999995 -0.003029
vn 0.001074 -0.999995 -0.003068
vn -0.999999 -0.001115 0.000470
vn -0.999765 0.021672 0.000284
vn -0.999993 0.003741 0.000450
vn -0.999692 -0.024790 0.000697
vn -0.999999 -0.001115 0.000508
vn -0.001075 0.999996 0.002602
vn -0.001075 0.999997 0.002189
vn 0.999999 0.001118 0.000000
vn 0.999999 0.001118 0.000000
vn 0.001086 -0.999999 0.000000
vn 0.001086 -0.999999 0.000000
vn 0.999999 0.001115 0.000000
vn 0.999620 0.027569 -0.000330
vn 0.999974 0.007243 -0.000076
vn 0.999410 -0.034333 0.000442
vn 0.999999 0.001115 0.000000
vn -0.001086 0.999999 0.000000
vn -0.001086 0.999999 0.000000
vn 0.999999 0.001115 0.000000
vn 0.999999 0.001115 0.000000
vn 0.001074 -1.000000 0.000000
vn 0.001074 -1.000000 0.000000
vn -0.999764 0.021708 -0.000284
vn -0.999999 -0.001115 0.000000
vn -0.999982 -0.005926 0.000060
vn -0.999696 -0.024667 0.000293
vn -0.999999 -0.001115 0.000000
vn -0.001074 1.000000 0.000000
vn -0.001074 1.000000 0.000000
vn -0.999999 -0.001115 0.000000
vn -0.999707 -0.024204 0.000288
vn -0.999993 0.003750 -0.000060
vn -0.999755 0.022145 -0.000290
vn -0.999999 -0.001115 0.000000
vn 0.001074 -0.999999 0.000000
vn 0.001074 -0.999999 0.000000
vn 0.999999 0.001115 0.000000
vn 0.999999 0.001115 0.000000
vn -0.001086 0.999999 0.000000
vn -0.001086 0.999999 0.000000
vn 0.999377 -0.035282 0.000453
vn 0.999999 0.001115 0.000000
vn 0.999988 -0.004996 0.000076
vn 0.999633 0.027083 -0.000324
vn 0.999999 0.001115 0.000000
vn 0.001086 -0.999999 0.000000
vn 0.001086 -0.999999 0.000000
vn 0.999999 0.001118 0.000000
vn 0.999999 0.001118 0.000000
vn -0.001074 0.999999 0.000000
vn -0.001074 0.999999 0.000000
s 1
g polaroid_1
usemtl initialShadingGroup
f 24/105/1 17/38/2 25/118/3 26/116/4
s 2
f 77/1/5 78/2/6 45/3/7 46/4/8
s 3
f 18/109/9 19/81/10 31/77/11 32/112/12
s 4
f 51/26/13 52/27/14 71/28/15 72/29/16
s 5
f 49/65/17 50/36/18 73/37/19 74/69/20
s 6
f 82/72/21 69/42/22 54/43/23 41/68/24
s 7
f 23/51/25 24/52/26 26/53/27 27/54/28
s 8
f 48/66/29 49/65/30 74/69/31 75/70/32
s 9
f 30/78/33 31/114/34 19/107/35 20/82/36
s 10
f 81/71/37 82/99/38 41/103/39 42/67/40
s 11
f 22/92/41 23/51/42 27/54/43 28/96/44
s 12
f 47/88/45 48/66/46 75/70/47 76/85/48
s 13
f 29/95/49 30/78/50 20/82/51 21/5/52
s 14
f 80/16/53 81/71/54 42/67/55 43/15/56
s 4
f 52/27/14 53/32/57 70/33/58 71/28/15
s 3
f 34/108/59 35/106/60 19/81/10 18/109/9
s 9
f 20/82/36 19/107/35 35/80/61 36/79/62
s 13
f 21/5/52 20/82/51 36/79/63 37/93/64
s 2
f 78/2/6 79/7/65 44/8/66 45/3/7
s 11
f 38/91/67 39/55/68 23/51/42 22/92/41
s 7
f 39/55/69 40/104/70 24/52/26 23/51/25
s 1
f 40/56/71 33/46/72 17/38/2 24/105/1
f 26/116/4 25/118/3 2/119/73 4/117/74
s 7
f 27/54/28 26/53/27 4/57/75 10/58/76
s 11
f 28/96/44 27/54/43 10/58/77 14/97/78
s 2
f 76/11/79 77/1/5 46/4/8 47/12/80
s 13
f 11/74/81 30/78/50 29/95/49 15/86/82
s 9
f 6/73/83 31/114/34 30/78/33 11/74/84
s 3
f 32/112/12 31/77/11 6/115/85 8/113/86
s 4
f 50/36/87 51/26/13 72/29/16 73/37/88
f 69/42/89 70/33/58 53/32/57 54/43/90
s 3
f 5/100/91 35/106/60 34/108/59 7/120/92
s 9
f 36/79/62 35/80/61 5/101/93 12/76/94
s 13
f 37/93/64 36/79/63 12/76/95 16/21/96
s 2
f 43/90/97 44/8/66 79/7/65 80/83/98
s 11
f 9/60/99 39/55/68 38/91/67 13/98/100
s 7
f 3/59/101 40/104/70 39/55/69 9/60/102
s 1
f 1/123/103 33/46/72 40/56/71 3/121/104
s 10
f 42/67/40 41/103/39 55/102/105 56/63/106
s 14
f 43/15/56 42/67/55 56/63/107 57/89/108
s 2
f 57/22/109 58/17/110 44/8/66 43/90/97
f 45/3/7 44/8/66 58/17/110 59/9/111
f 46/4/8 45/3/7 59/9/111 60/10/112
f 47/12/80 46/4/8 60/10/112 61/87/113
s 12
f 61/20/114 62/62/115 48/66/46 47/88/45
s 8
f 62/62/116 63/61/117 49/65/30 48/66/29
s 5
f 63/61/118 64/41/119 50/36/18 49/65/17
s 4
f 64/41/120 65/30/121 51/26/13 50/36/87
f 65/30/121 66/31/122 52/27/14 51/26/13
f 66/31/122 67/40/123 53/32/57 52/27/14
f 54/43/90 53/32/57 67/40/123 68/48/124
s 6
f 41/68/24 54/43/23 68/48/125 55/64/126
s 10
f 56/63/106 55/102/105 3/59/127 9/60/128
s 14
f 57/89/108 56/63/107 9/60/129 13/98/130
s 2
f 13/25/131 38/23/132 58/17/110 57/22/109
f 59/9/111 58/17/110 38/23/132 22/18/133
f 60/10/112 59/9/111 22/18/133 28/19/134
f 61/87/113 60/10/112 28/19/134 14/24/135
s 12
f 10/58/136 62/62/115 61/20/114 14/97/137
s 8
f 4/57/138 63/61/117 62/62/116 10/58/139
s 5
f 2/47/140 64/41/119 63/61/118 4/57/141
s 4
f 25/39/142 65/30/121 64/41/120 2/47/143
f 17/111/144 66/31/122 65/30/121 25/39/142
f 33/110/145 67/40/123 66/31/122 17/111/144
f 68/48/124 67/40/123 33/110/145 1/50/146
s 6
f 55/64/126 68/48/125 1/50/147 3/122/148
s 4
f 7/49/149 34/44/150 70/33/58 69/42/89
f 71/28/15 70/33/58 34/44/150 18/34/151
f 72/29/16 71/28/15 18/34/151 32/35/152
f 73/37/88 72/29/16 32/35/152 8/45/153
s 5
f 74/69/20 73/37/19 8/45/154 6/73/155
s 8
f 75/70/32 74/69/31 6/73/156 11/74/157
s 12
f 76/85/48 75/70/47 11/74/158 15/86/159
s 2
f 29/6/160 77/1/5 76/11/79 15/14/161
f 21/94/162 78/2/6 77/1/5 29/6/160
f 37/13/163 79/7/65 78/2/6 21/94/162
f 80/83/98 79/7/65 37/13/163 16/84/164
s 14
f 12/76/165 81/71/54 80/16/53 16/21/166
s 10
f 5/101/167 82/99/38 81/71/37 12/76/168
s 6
f 7/49/169 69/42/22 82/72/21 5/75/170
