# This file uses centimeters as units for non-parametric coordinates.

mtllib Whiteboardpenna.mtl
g default
v -0.176777 0.073223 1.209468
v 0.000000 0.000000 1.209468
v 0.176777 0.073223 1.209468
v 0.250000 0.250000 1.209468
v 0.176777 0.426777 1.209468
v 0.000000 0.500000 1.209468
v -0.176777 0.426777 1.209468
v -0.250000 0.250000 1.209468
v -0.000000 0.250000 -1.719346
v 0.000000 0.250000 1.901184
v -0.066482 0.183518 1.690437
v 0.000000 0.155981 1.690437
v 0.066482 0.183518 1.690437
v 0.094019 0.250000 1.690437
v 0.066482 0.316482 1.690437
v 0.000000 0.344019 1.690437
v -0.066482 0.316482 1.690437
v -0.094019 0.250000 1.690437
v -0.176777 0.073223 -1.719346
v -0.000000 0.000000 -1.719346
v 0.176777 0.073223 -1.719346
v 0.250000 0.250000 -1.719346
v 0.176777 0.426777 -1.719346
v -0.000000 0.500000 -1.719346
v -0.176777 0.426777 -1.719346
v -0.250000 0.250000 -1.719346
v -0.090469 0.159530 1.554618
v 0.000000 0.122057 1.554618
v 0.090469 0.159530 1.554618
v 0.127943 0.250000 1.554618
v 0.090469 0.340469 1.554618
v 0.000000 0.377943 1.554618
v -0.090469 0.340469 1.554618
v -0.127943 0.250000 1.554618
v -0.136546 0.113454 1.209468
v -0.000000 0.056894 1.209468
v 0.136546 0.113454 1.209468
v 0.193106 0.250000 1.209468
v 0.136546 0.386546 1.209468
v -0.000000 0.443106 1.209468
v -0.136546 0.386546 1.209468
v -0.193106 0.250000 1.209468
v -0.136905 0.113094 1.407760
v -0.193614 0.250000 1.407760
v -0.136906 0.386906 1.407760
v -0.000000 0.443614 1.407760
v 0.136905 0.386906 1.407760
v 0.193614 0.250000 1.407760
v 0.136905 0.113094 1.407760
v -0.000000 0.056386 1.407760
v -0.090105 0.159895 1.690437
v -0.127428 0.250000 1.690437
v -0.090105 0.340105 1.690437
v 0.000000 0.377428 1.690437
v 0.090105 0.340105 1.690437
v 0.127428 0.250000 1.690437
v 0.090105 0.159895 1.690437
v 0.000000 0.122572 1.690437
v -0.065285 0.184715 1.757704
v 0.000000 0.157674 1.757704
v 0.065285 0.184715 1.757704
v 0.092326 0.250000 1.757704
v 0.065285 0.315285 1.757704
v 0.000000 0.342326 1.757704
v -0.065285 0.315285 1.757704
v -0.092326 0.250000 1.757704
v -0.000000 0.000000 -1.038100
v -0.176777 0.073223 -1.038100
v -0.250000 0.250000 -1.038100
v -0.176777 0.426777 -1.038100
v -0.000000 0.500000 -1.038100
v 0.176777 0.426777 -1.038100
v 0.250000 0.250000 -1.038100
v 0.176777 0.073223 -1.038100
v 0.000000 -0.024732 -1.041834
v -0.194265 0.055735 -1.041834
v -0.194265 0.055735 -1.715612
v 0.000000 -0.024732 -1.715612
v 0.194265 0.055735 -1.041834
v 0.194265 0.055735 -1.715612
v 0.274732 0.250000 -1.041834
v 0.274732 0.250000 -1.715612
v 0.194265 0.444265 -1.041834
v 0.194265 0.444265 -1.715612
v 0.000000 0.524732 -1.041834
v 0.000000 0.524732 -1.715612
v -0.194265 0.444265 -1.041834
v -0.194265 0.444265 -1.715612
v -0.274732 0.250000 -1.041834
v -0.274732 0.250000 -1.715612
v 0.019149 0.570962 -1.041834
v 0.213414 0.490495 -1.041834
v 0.213414 0.490495 -1.715612
v 0.019149 0.570962 -1.715612
v -0.000000 0.524732 -0.946881
v 0.194265 0.444265 -0.946881
v 0.213414 0.490495 -0.946881
v 0.019149 0.570962 -0.946881
vt 0.761775 0.761553
vt 0.761300 0.690653
vt 0.988486 0.689128
vt 0.988961 0.760028
vt 0.762251 0.832452
vt 0.989437 0.830927
vt 0.989550 0.847800
vt 0.762365 0.849324
vt 0.730348 0.849539
vt 0.730235 0.832667
vt 0.186378 0.084861
vt 0.245900 0.046337
vt 0.369345 0.237065
vt 0.309823 0.275589
vt 0.126856 0.123386
vt 0.250301 0.314114
vt 0.823852 0.076960
vt 0.840709 0.106957
vt 0.798430 0.124777
vt 0.784147 0.095820
vt 0.864775 0.036184
vt 0.888295 0.078764
vt 0.853979 0.140463
vt 0.810130 0.154478
vt 0.927371 0.007813
vt 0.949382 0.053209
vt 0.905482 0.121485
vt 0.968699 0.101367
vt 0.868617 0.212753
vt 0.869535 0.249864
vt 0.823476 0.248399
vt 0.822794 0.216647
vt 0.923225 0.209008
vt 0.923978 0.253513
vt 0.866169 0.286631
vt 0.820288 0.279964
vt 0.989764 0.203578
vt 0.990740 0.255858
vt 0.919214 0.298123
vt 0.985381 0.307791
vt 0.007813 0.100914
vt 0.010969 0.075523
vt 0.032019 0.082037
vt 0.031265 0.105504
vt 0.020804 0.049254
vt 0.039442 0.060803
vt 0.091507 0.088932
vt 0.064949 0.012295
vt 0.094088 0.007813
vt 0.094081 0.029894
vt 0.072439 0.032975
vt 0.122623 0.013742
vt 0.115539 0.034852
vt 0.749263 0.257465
vt 0.776511 0.315948
vt 0.089556 0.636009
vt 0.062308 0.577526
vt 0.803759 0.374430
vt 0.116803 0.694491
vt 0.858254 0.491395
vt 0.885502 0.549877
vt 0.198546 0.869938
vt 0.171299 0.811456
vt 0.912749 0.608360
vt 0.225794 0.928421
vt 0.025049 0.521837
vt 0.024730 0.749028
vt 0.007858 0.749004
vt 0.008177 0.521813
vt 0.024685 0.781045
vt 0.007813 0.781021
vt 0.067334 0.161910
vt 0.190779 0.352638
vt 0.007813 0.200435
vt 0.131257 0.391163
vt 0.991695 0.642116
vt 0.920794 0.641962
vt 0.921286 0.414772
vt 0.992188 0.414925
vt 0.991625 0.674133
vt 0.920724 0.673980
vt 0.305422 0.007813
vt 0.428867 0.198540
vt 0.858668 0.322094
vt 0.813267 0.311024
vt 0.908712 0.342762
vt 0.846957 0.354279
vt 0.803693 0.342417
vt 0.974205 0.358492
vt 0.891862 0.387798
vt 0.959277 0.407534
vt 0.863389 0.176037
vt 0.818317 0.185191
vt 0.917059 0.164905
vt 0.982377 0.151796
vt 0.146924 0.028107
vt 0.134367 0.047063
vt 0.165804 0.046591
vt 0.149111 0.065013
vt 0.039361 0.026887
vt 0.053411 0.043749
vt 0.722016 0.198983
vt 0.035060 0.519044
vt 0.694768 0.140500
vt 0.007813 0.460561
vt 0.831006 0.432913
vt 0.144051 0.752974
vt 0.697071 0.007813
vt 0.758559 0.043114
vt 0.742617 0.070881
vt 0.681129 0.035579
vt 0.574228 0.100561
vt 0.549530 0.160170
vt 0.489928 0.100554
vt 0.582669 0.100561
vt 0.555500 0.166139
vt 0.489916 0.184854
vt 0.549541 0.040949
vt 0.555509 0.034979
vt 0.489917 0.193296
vt 0.430309 0.160153
vt 0.489931 0.016254
vt 0.489930 0.007813
vt 0.424340 0.166123
vt 0.405630 0.100538
vt 0.430321 0.040946
vt 0.424349 0.034980
vt 0.397189 0.100536
vt 0.381603 0.094072
vt 0.408760 0.028527
vt 0.137562 0.933100
vt 0.074318 0.945861
vt 0.078009 0.927036
vt 0.126860 0.917178
vt 0.020574 0.910165
vt 0.036496 0.899463
vt 0.173258 0.879356
vt 0.154432 0.875665
vt 0.007813 0.846921
vt 0.026638 0.850612
vt 0.160496 0.816112
vt 0.144575 0.826814
vt 0.043509 0.793178
vt 0.054211 0.809099
vt 0.106753 0.780416
vt 0.103062 0.799242
vt 0.644446 0.085960
vt 0.612076 0.091763
vt 0.614483 0.080758
vt 0.638366 0.076476
vt 0.585084 0.072978
vt 0.594568 0.066898
vt 0.663232 0.058968
vt 0.652227 0.056561
vt 0.579281 0.040608
vt 0.590286 0.043015
vt 0.657428 0.026598
vt 0.647945 0.032678
vt 0.598066 0.013616
vt 0.604146 0.023099
vt 0.630436 0.007813
vt 0.628029 0.018817
vt 0.588681 0.780226
vt 0.551561 0.832996
vt 0.543339 0.831115
vt 0.584132 0.773124
vt 0.562037 0.896659
vt 0.554852 0.901075
vt 0.652138 0.768571
vt 0.653867 0.760316
vt 0.614110 0.934752
vt 0.612076 0.942937
vt 0.708900 0.810094
vt 0.716244 0.805947
vt 0.677956 0.925458
vt 0.682238 0.932724
vt 0.717008 0.874101
vt 0.725154 0.876286
vt 0.734216 0.085513
vt 0.672728 0.050211
vt 0.020574 0.910165
vt 0.036496 0.899463
vt 0.579281 0.040608
vt 0.590286 0.043015
vt 0.658276 0.770096
vt 0.660612 0.761992
vn -0.382683 -0.923880 0.000000
vn -0.382683 -0.923880 0.000000
vn -0.382683 -0.923880 0.000000
vn -0.382683 -0.923880 0.000000
vn 0.382683 -0.923880 -0.000000
vn 0.382683 -0.923880 -0.000000
vn 0.382683 -0.923880 -0.000000
vn 0.382683 -0.923880 -0.000000
vn 0.923880 -0.382683 -0.000000
vn 0.923880 -0.382683 -0.000000
vn 0.923880 -0.382683 -0.000000
vn 0.923880 -0.382683 -0.000000
vn 0.923880 0.382683 -0.000000
vn 0.923880 0.382683 -0.000000
vn 0.923880 0.382683 -0.000000
vn 0.923880 0.382683 -0.000000
vn 0.382683 0.923880 0.000000
vn 0.382683 0.923880 0.000000
vn 0.382683 0.923880 0.000000
vn 0.382683 0.923880 0.000000
vn -0.382684 0.923879 0.000000
vn -0.382684 0.923879 0.000000
vn -0.382684 0.923879 0.000000
vn -0.382684 0.923879 0.000000
vn -0.923879 0.382684 0.000000
vn -0.923879 0.382684 0.000000
vn -0.923879 0.382684 0.000000
vn -0.923879 0.382684 0.000000
vn -0.923880 -0.382684 0.000000
vn -0.923880 -0.382684 0.000000
vn -0.923880 -0.382684 0.000000
vn -0.923880 -0.382684 0.000000
vn -0.682706 -0.682706 0.260430
vn 0.000000 -0.965493 0.260430
vn 0.000000 -0.986877 0.161475
vn -0.697827 -0.697827 0.161475
vn 0.682707 -0.682706 0.260430
vn 0.697827 -0.697827 0.161475
vn 0.965493 -0.000000 0.260430
vn 0.986877 -0.000000 0.161475
vn 0.682706 0.682706 0.260430
vn 0.697827 0.697827 0.161475
vn 0.000000 0.965493 0.260430
vn 0.000000 0.986877 0.161476
vn -0.682706 0.682706 0.260430
vn -0.697827 0.697827 0.161475
vn -0.965493 0.000000 0.260430
vn -0.986877 0.000000 0.161475
vn -0.560944 -0.560944 0.608838
vn -0.000000 -0.793294 0.608838
vn -0.000000 -0.952450 0.304695
vn -0.673483 -0.673484 0.304695
vn 0.560944 -0.560944 0.608839
vn 0.673484 -0.673484 0.304695
vn 0.793295 0.000000 0.608838
vn 0.952450 0.000000 0.304695
vn 0.560945 0.560944 0.608838
vn 0.673483 0.673484 0.304695
vn 0.000001 0.793295 0.608837
vn 0.000000 0.952450 0.304694
vn -0.560944 0.560944 0.608839
vn -0.673483 0.673485 0.304695
vn -0.793295 -0.000000 0.608838
vn -0.952450 -0.000000 0.304695
vn 0.000000 0.000000 -1.000000
vn 0.000000 0.000000 -1.000000
vn 0.000000 0.000000 -1.000000
vn 0.000000 0.000000 -1.000000
vn 0.000000 0.000000 -1.000000
vn 0.000000 0.000000 -1.000000
vn 0.000000 0.000000 -1.000000
vn 0.000000 0.000000 -1.000000
vn 0.000000 0.000000 -1.000000
vn -0.654681 -0.654681 0.377869
vn 0.000000 -0.925859 0.377869
vn 0.000000 -0.987763 0.155960
vn -0.698454 -0.698454 0.155960
vn 0.654681 -0.654681 0.377869
vn 0.698454 -0.698454 0.155960
vn 0.925859 0.000000 0.377869
vn 0.987763 0.000000 0.155960
vn 0.654681 0.654681 0.377869
vn 0.698454 0.698454 0.155960
vn -0.000000 0.925859 0.377869
vn -0.000000 0.987763 0.155960
vn -0.654681 0.654681 0.377869
vn -0.698454 0.698454 0.155960
vn -0.925859 0.000000 0.377869
vn -0.987763 0.000000 0.155960
vn -0.000000 0.000000 1.000000
vn 0.000000 0.000000 1.000000
vn 0.000000 0.000000 1.000000
vn 0.000000 0.000000 1.000000
vn 0.000000 0.000000 1.000000
vn -0.000000 0.000000 1.000000
vn -0.000000 0.000000 1.000000
vn 0.000000 0.000000 1.000000
vn -0.000000 0.000000 1.000000
vn -0.382683 -0.923880 0.000000
vn -0.382683 -0.923880 0.000000
vn -0.382683 -0.923880 0.000000
vn -0.382683 -0.923880 0.000000
vn -0.923880 -0.382683 0.000000
vn -0.923880 -0.382683 0.000000
vn -0.923880 -0.382683 0.000000
vn -0.923880 -0.382683 0.000000
vn -0.923880 0.382684 0.000000
vn -0.923880 0.382684 0.000000
vn -0.923880 0.382684 0.000000
vn -0.923880 0.382684 0.000000
vn -0.382684 0.923880 0.000000
vn -0.382684 0.923880 0.000000
vn -0.382684 0.923880 0.000000
vn -0.382684 0.923880 0.000000
vn 0.382684 0.923879 -0.000000
vn 0.382684 0.923879 -0.000000
vn 0.382684 0.923879 -0.000000
vn 0.382684 0.923879 -0.000000
vn 0.923880 0.382683 0.000000
vn 0.923880 0.382683 0.000000
vn 0.923880 0.382683 0.000000
vn 0.923880 0.382683 0.000000
vn 0.923880 -0.382683 0.000000
vn 0.923880 -0.382683 0.000000
vn 0.923880 -0.382683 0.000000
vn 0.923880 -0.382683 0.000000
vn 0.382683 -0.923880 0.000000
vn 0.382683 -0.923880 0.000000
vn 0.382683 -0.923880 0.000000
vn 0.382683 -0.923880 0.000000
vn -0.061721 -0.149008 0.986908
vn -0.061721 -0.149008 0.986908
vn -0.061721 -0.149008 0.986908
vn -0.061721 -0.149008 0.986908
vn -0.061718 -0.149008 -0.986908
vn -0.061718 -0.149008 -0.986908
vn -0.061718 -0.149008 -0.986908
vn -0.061718 -0.149008 -0.986908
vn 0.061721 -0.149008 0.986908
vn 0.061721 -0.149008 0.986908
vn 0.061721 -0.149008 0.986908
vn 0.061721 -0.149008 0.986908
vn 0.061718 -0.149008 -0.986908
vn 0.061718 -0.149008 -0.986908
vn 0.061718 -0.149008 -0.986908
vn 0.061718 -0.149008 -0.986908
vn 0.149010 -0.061721 0.986908
vn 0.149010 -0.061721 0.986908
vn 0.149010 -0.061721 0.986908
vn 0.149010 -0.061721 0.986908
vn 0.149012 -0.061721 -0.986907
vn 0.149012 -0.061721 -0.986907
vn 0.149012 -0.061721 -0.986907
vn 0.149012 -0.061721 -0.986907
vn 0.149009 0.061721 0.986908
vn 0.149009 0.061721 0.986908
vn 0.149009 0.061721 0.986908
vn 0.149009 0.061721 0.986908
vn 0.149010 0.061721 -0.986908
vn 0.149010 0.061721 -0.986908
vn 0.149010 0.061721 -0.986908
vn 0.149010 0.061721 -0.986908
vn 0.061723 0.149008 0.986908
vn 0.061723 0.149008 0.986908
vn 0.061723 0.149008 0.986908
vn 0.061723 0.149008 0.986908
vn 0.061721 0.149008 -0.986908
vn 0.061721 0.149008 -0.986908
vn 0.015446 0.037292 -0.999185
vn 0.015446 0.037292 -0.999185
vn -0.061723 0.149008 0.986908
vn -0.061723 0.149008 0.986908
vn -0.061723 0.149008 0.986908
vn -0.061723 0.149008 0.986908
vn -0.061722 0.149008 -0.986908
vn -0.061722 0.149008 -0.986908
vn -0.061722 0.149008 -0.986908
vn -0.061722 0.149008 -0.986908
vn -0.149010 0.061721 0.986908
vn -0.149010 0.061721 0.986908
vn -0.149010 0.061721 0.986908
vn -0.149010 0.061721 0.986908
vn -0.149012 0.061721 -0.986907
vn -0.149012 0.061721 -0.986907
vn -0.149012 0.061721 -0.986907
vn -0.149012 0.061721 -0.986907
vn -0.149008 -0.061721 0.986908
vn -0.149008 -0.061721 0.986908
vn -0.149008 -0.061721 0.986908
vn -0.149008 -0.061721 0.986908
vn -0.149010 -0.061721 -0.986908
vn -0.149010 -0.061721 -0.986908
vn -0.149010 -0.061721 -0.986908
vn -0.149010 -0.061721 -0.986908
vn -0.000000 0.000000 1.000000
vn -0.000000 0.000000 1.000000
vn -0.000000 0.000000 1.000000
vn -0.000000 0.000000 1.000000
vn 0.923880 -0.382684 0.000000
vn 0.923879 -0.382684 -0.000000
vn 0.923879 -0.382684 -0.000000
vn 0.923879 -0.382684 0.000000
vn -0.000001 0.000000 -1.000000
vn -0.000001 0.000000 -1.000000
vn -0.923879 0.382685 0.000000
vn -0.923879 0.382685 -0.000000
vn -0.923879 0.382685 -0.000000
vn -0.923879 0.382685 0.000000
vn -0.382684 -0.923880 -0.000000
vn -0.382684 -0.923880 -0.000000
vn -0.382684 -0.923880 -0.000000
vn -0.382684 -0.923880 -0.000000
vn 0.923880 -0.382684 0.000000
vn 0.923880 -0.382684 0.000000
vn 0.382683 0.923880 0.000000
vn 0.382683 0.923880 0.000000
vn -0.923879 0.382684 -0.000000
vn -0.923879 0.382684 -0.000000
s off
g Whiteboardpenna
usemtl initialShadingGroup
f 75/72/1 76/15/2 77/16/3 78/73/4
f 79/74/5 75/72/6 78/73/7 80/75/8
f 81/1/9 79/2/10 80/3/11 82/4/12
f 83/5/13 81/1/14 82/4/15 84/6/16
s 1
f 91/76/17 92/77/18 93/78/19 94/79/20
s off
f 87/12/21 85/82/22 86/83/23 88/13/24
f 89/11/25 87/12/26 88/13/27 90/14/28
f 76/15/29 89/11/30 90/14/31 77/16/32
s 2
f 27/35/33 28/84/34 58/85/35 51/36/36
f 28/84/34 29/87/37 57/88/38 58/85/35
f 29/17/37 30/18/39 56/19/40 57/20/38
f 30/18/39 31/23/41 55/24/42 56/19/40
f 31/23/41 32/92/43 54/93/44 55/24/42
f 32/92/43 33/29/45 53/32/46 54/93/44
f 33/29/45 34/30/47 52/31/48 53/32/46
f 34/30/47 27/35/33 51/36/36 52/31/48
f 11/52/49 12/96/50 60/97/51 59/53/52
f 12/96/50 13/98/53 61/99/54 60/97/51
f 13/41/53 14/42/55 62/43/56 61/44/54
f 14/42/55 15/45/57 63/46/58 62/43/56
f 15/45/57 16/100/59 64/101/60 63/46/58
f 16/100/59 17/48/61 65/51/62 64/101/60
f 17/48/61 18/49/63 66/50/64 65/51/62
f 18/49/63 11/52/49 59/53/52 66/50/64
s 3
f 20/112/65 19/113/66 9/114/67
f 19/113/66 26/117/68 9/114/67
f 21/118/69 20/112/65 9/114/67
f 22/122/70 21/118/69 9/114/67
f 23/126/71 22/122/70 9/114/67
f 24/125/72 23/126/71 9/114/67
f 25/121/73 24/125/72 9/114/67
f 26/117/68 25/121/73 9/114/67
s 2
f 35/40/74 36/89/75 50/86/76 43/39/77
f 36/89/75 37/91/78 49/90/79 50/86/76
f 37/25/78 38/26/80 48/22/81 49/21/79
f 38/26/80 39/28/82 47/27/83 48/22/81
f 39/28/82 40/95/84 46/94/85 47/27/83
f 40/95/84 41/37/86 45/33/87 46/94/85
f 41/37/86 42/38/88 44/34/89 45/33/87
f 42/38/88 35/40/74 43/39/77 44/34/89
f 1/131/90 2/132/91 36/133/75 35/134/74
f 2/132/91 3/135/92 37/182/78 36/133/75
f 3/181/92 4/139/93 38/140/80 37/136/78
f 4/139/93 5/143/94 39/144/82 38/140/80
f 5/143/94 6/145/95 40/146/84 39/144/82
f 6/145/95 7/141/96 41/142/86 40/146/84
f 7/141/96 8/137/97 42/138/88 41/142/86
f 8/137/97 1/131/90 35/134/74 42/138/88
f 44/34/89 43/39/77 27/35/33 34/30/47
f 45/33/87 44/34/89 34/30/47 33/29/45
f 46/94/85 45/33/87 33/29/45 32/92/43
f 47/27/83 46/94/85 32/92/43 31/23/41
f 48/22/81 47/27/83 31/23/41 30/18/39
f 49/21/79 48/22/81 30/18/39 29/17/37
f 50/86/76 49/90/79 29/87/37 28/84/34
f 43/39/77 50/86/76 28/84/34 27/35/33
f 52/147/48 51/148/36 11/149/49 18/150/63
f 53/153/46 52/147/48 18/150/63 17/154/61
f 54/157/44 53/153/46 17/154/61 16/158/59
f 55/161/42 54/157/44 16/158/59 15/162/57
f 56/159/40 55/161/42 15/162/57 14/160/55
f 57/183/38 56/159/40 14/160/55 13/184/53
f 58/151/35 57/155/38 13/156/53 12/152/50
f 51/148/36 58/151/35 12/152/50 11/149/49
f 59/53/52 60/97/51 10/47/98
f 60/97/51 61/99/54 10/47/98
f 61/44/54 62/43/56 10/47/98
f 62/43/56 63/46/58 10/47/98
f 63/46/58 64/101/60 10/47/98
f 64/101/60 65/51/62 10/47/98
f 65/51/62 66/50/64 10/47/98
f 66/50/64 59/53/52 10/47/98
s off
f 2/102/99 1/54/100 68/57/101 67/103/102
f 1/54/103 8/55/104 69/56/105 68/57/106
f 8/55/107 7/58/108 70/59/109 69/56/110
f 7/58/111 6/106/112 71/107/113 70/59/114
f 6/106/115 5/60/116 72/63/117 71/107/118
f 5/60/119 4/61/120 73/62/121 72/63/122
f 4/61/123 3/64/124 74/65/125 73/62/126
f 3/104/127 2/102/128 67/103/129 74/105/130
f 67/163/131 68/164/132 76/165/133 75/166/134
f 19/113/135 20/112/136 78/115/137 77/116/138
f 74/169/139 67/163/140 75/166/141 79/170/142
f 20/112/143 21/118/144 80/119/145 78/115/146
f 73/173/147 74/185/148 79/186/149 81/174/150
f 21/118/151 22/122/152 82/123/153 80/119/154
f 72/177/155 73/173/156 81/174/157 83/178/158
f 22/122/159 23/126/160 84/127/161 82/123/162
f 71/175/163 72/177/164 83/178/165 85/176/166
s 5
f 23/126/167 24/125/168 86/128/169 84/127/170
s off
f 70/171/171 71/175/172 85/176/173 87/172/174
f 24/125/175 25/121/176 88/124/177 86/128/178
f 69/167/179 70/171/180 87/172/181 89/168/182
f 25/121/183 26/117/184 90/120/185 88/124/186
f 68/164/187 69/167/188 89/168/189 76/165/190
f 26/117/191 19/113/192 77/116/193 90/120/194
f 95/111/195 96/110/196 97/179/197 98/180/198
s 6
f 83/5/199 84/6/200 93/7/201 92/8/202
s 5
f 84/127/170 86/128/169 94/129/203 93/130/204
s 7
f 86/66/205 85/67/206 91/68/207 94/69/208
s off
f 85/108/209 83/109/210 96/110/211 95/111/212
s 6
f 83/5/199 92/8/202 97/9/213 96/10/214
s 1
f 92/77/18 91/76/17 98/80/215 97/81/216
s 7
f 91/68/207 85/67/206 95/70/217 98/71/218
